<?xml version="1.0" standalone="no"?>
<!DOCTYPE svg PUBLIC "-//W3C//DTD SVG 20010904//EN"
 "http://www.w3.org/TR/2001/REC-SVG-20010904/DTD/svg10.dtd">
<svg version="1.0" xmlns="http://www.w3.org/2000/svg"
 width="213.000000pt" height="213.000000pt" viewBox="0 0 213.000000 213.000000"
 preserveAspectRatio="xMidYMid meet">
<metadata>
Created by potrace 1.10, written by Peter Selinger 2001-2011
</metadata>
<g transform="translate(0.000000,213.000000) scale(0.100000,-0.100000)"
fill="#000000" stroke="none">
<path d="M470 1949 c-64 -54 -60 11 -60 -912 l0 -838 46 -44 46 -45 414 0
c390 0 415 1 445 19 55 33 69 66 69 158 0 45 -4 84 -9 88 -17 10 -31 -31 -31
-89 0 -30 -5 -67 -12 -81 -24 -54 -34 -55 -458 -55 -424 0 -434 1 -458 55 -9
19 -12 231 -12 845 l0 818 30 30 c52 52 154 56 166 7 3 -14 22 -39 41 -55 l35
-31 203 3 204 3 30 29 c16 15 32 39 35 52 12 48 115 44 166 -8 l30 -30 0 -308
c0 -170 3 -315 6 -324 3 -9 12 -16 20 -16 12 0 14 54 14 328 0 358 1 352 -62
401 -26 21 -36 21 -450 21 -413 -1 -424 -1 -448 -21z"/>
<path d="M1345 1075 c-50 -12 -96 -33 -125 -57 -39 -32 -88 -108 -103 -159
-21 -70 -21 -95 1 -171 14 -50 28 -73 72 -118 72 -75 130 -100 226 -100 82 0
125 15 192 68 51 41 81 86 107 164 17 51 18 65 7 115 -21 103 -62 163 -147
218 -41 26 -148 59 -174 54 -3 -1 -28 -7 -56 -14z m187 -61 c49 -25 108 -78
108 -98 0 -5 8 -18 18 -29 13 -15 17 -37 16 -106 0 -102 -21 -151 -89 -208
-40 -33 -130 -73 -164 -73 -44 0 -138 38 -177 73 -75 66 -89 98 -89 203 0 89
1 93 37 145 58 84 120 117 221 118 54 1 78 -4 119 -25z"/>
<path d="M1395 909 c-4 -5 -5 -50 -3 -99 1 -48 0 -92 -4 -95 -4 -4 -23 6 -43
24 -38 33 -50 37 -61 20 -6 -11 112 -139 128 -139 16 0 140 129 133 139 -10
18 -23 13 -63 -24 -22 -19 -42 -32 -46 -28 -3 3 -6 53 -6 110 0 83 -3 103 -14
103 -8 0 -18 -5 -21 -11z"/>
<path d="M802 243 c3 -16 16 -18 118 -18 96 0 115 3 115 15 0 12 -21 16 -118
18 -109 2 -118 1 -115 -15z"/>
</g>
</svg>
