<?xml version="1.0" standalone="no"?>
<!DOCTYPE svg PUBLIC "-//W3C//DTD SVG 20010904//EN"
 "http://www.w3.org/TR/2001/REC-SVG-20010904/DTD/svg10.dtd">
<svg version="1.0" xmlns="http://www.w3.org/2000/svg"
 width="213.000000pt" height="213.000000pt" viewBox="0 0 213.000000 213.000000"
 preserveAspectRatio="xMidYMid meet">
<metadata>
Created by potrace 1.10, written by Peter Selinger 2001-2011
</metadata>
<g transform="translate(0.000000,213.000000) scale(0.100000,-0.100000)"
fill="#000000" stroke="none">
<path d="M1185 1912 c-38 -8 -55 -33 -55 -79 0 -44 -19 -79 -92 -168 -16 -18
-28 -35 -28 -39 0 -3 -9 -15 -20 -26 -18 -18 -37 -19 -319 -22 l-299 -3 -38
-31 c-21 -16 -43 -46 -50 -65 -9 -25 -13 -164 -13 -547 -1 -499 -2 -514 -20
-519 -27 -7 -32 -27 -25 -85 7 -52 53 -128 79 -128 8 0 18 -8 24 -17 9 -17 59
-18 808 -20 439 -2 813 0 831 3 44 7 36 28 -11 32 -20 2 -37 8 -37 13 0 5 11
27 25 49 18 29 25 53 25 90 0 44 -3 52 -25 62 l-24 11 -3 533 -3 533 -30 31
c-51 54 -72 60 -207 60 -120 0 -124 1 -168 30 -27 18 -58 30 -77 30 -27 0 -37
7 -60 43 -15 23 -37 63 -49 88 -12 26 -27 50 -33 53 -6 4 -11 15 -11 25 0 19
-35 55 -60 63 -8 2 -24 2 -35 0z m53 -70 c25 -41 33 -57 51 -90 20 -38 83
-154 108 -197 12 -22 29 -53 37 -70 8 -16 28 -52 44 -80 35 -60 111 -200 130
-237 7 -16 10 -37 7 -49 -11 -34 -46 -19 -73 31 -68 124 -82 151 -122 225 -23
44 -50 91 -58 105 -9 14 -27 45 -39 70 -13 25 -35 65 -49 90 -53 92 -104 191
-104 203 0 16 20 37 35 37 5 0 20 -17 33 -38z m-74 -98 c9 -3 32 -39 51 -79
20 -41 43 -79 51 -85 8 -7 14 -19 14 -26 0 -8 11 -32 24 -53 14 -21 32 -54 40
-72 9 -19 29 -56 45 -84 17 -27 42 -72 56 -100 14 -27 31 -58 37 -67 9 -12 9
-21 2 -28 -6 -6 -102 -15 -225 -21 -118 -6 -227 -11 -243 -12 -24 -2 -35 6
-58 38 -15 22 -39 63 -53 92 -14 28 -30 55 -35 58 -19 11 -10 47 20 85 17 21
30 42 30 48 0 5 7 15 15 22 8 6 43 52 77 102 35 49 73 101 86 116 13 15 27 37
32 50 10 24 11 25 34 16z m317 -161 c15 -9 33 -30 39 -46 11 -33 4 -77 -14
-77 -17 0 -77 106 -70 124 8 20 9 20 45 -1z m-563 -70 c2 -13 -5 -27 -20 -37
-19 -14 -59 -16 -260 -16 -224 0 -238 -1 -248 -19 -6 -13 -10 -180 -10 -475
l0 -455 22 -15 c20 -14 103 -16 697 -16 614 0 676 1 693 17 17 15 18 43 18
478 0 369 -3 465 -13 473 -7 6 -60 13 -118 14 -100 3 -104 4 -107 26 -6 42 13
52 106 52 110 0 157 -14 182 -55 20 -32 20 -49 18 -551 l-3 -519 -775 0 -775
0 -3 529 -2 530 22 23 c12 13 36 27 52 32 17 5 141 9 276 8 243 -2 245 -2 248
-24z m-68 -100 c0 -17 -36 -43 -59 -43 -15 0 -42 -10 -61 -23 -19 -13 -57 -34
-84 -48 -27 -13 -51 -31 -54 -39 -3 -8 -18 -31 -34 -50 -15 -19 -28 -39 -28
-45 0 -18 91 -188 114 -213 18 -20 27 -23 64 -17 55 8 78 0 95 -33 8 -15 29
-54 47 -87 18 -33 43 -78 54 -100 44 -82 57 -95 88 -95 16 0 54 15 84 32 63
38 69 62 27 114 -76 92 -107 135 -119 164 -3 8 -13 29 -21 46 -15 29 -15 33 7
62 26 35 33 37 260 52 229 15 286 14 319 -11 34 -25 73 -18 95 17 27 39 27 39
-87 246 -40 73 -34 78 94 78 l109 0 0 -445 0 -445 -659 0 c-515 0 -661 3 -668
12 -12 16 -12 847 0 866 6 9 60 12 213 12 112 0 204 -3 204 -7z m-22 -110 c10
-16 26 -41 34 -58 8 -16 31 -60 51 -96 19 -36 32 -70 29 -76 -4 -6 -23 -20
-42 -31 -117 -69 -141 -74 -160 -30 -6 13 -25 50 -43 83 -19 33 -43 78 -56
100 l-21 40 21 15 c47 32 135 78 151 79 9 1 25 -11 36 -26z m-200 -159 c12
-20 22 -40 22 -45 0 -5 13 -30 29 -56 16 -26 27 -51 25 -55 -9 -15 -45 -8 -50
10 -3 9 -10 24 -15 32 -24 41 -59 119 -59 133 0 28 24 18 48 -19z m302 -196
c34 -65 90 -149 123 -184 16 -18 27 -40 25 -50 -3 -18 -52 -52 -78 -53 -15 -1
-49 48 -101 144 -78 144 -80 156 -31 174 39 14 38 15 62 -31z m998 -606 c5
-36 -18 -76 -62 -108 l-41 -29 -710 -3 c-634 -2 -715 -1 -753 14 -59 22 -110
93 -97 135 6 18 34 19 833 17 l827 -3 3 -23z"/>
<path d="M140 185 c0 -8 11 -17 25 -21 36 -9 95 4 95 21 0 12 -14 15 -60 15
-46 0 -60 -3 -60 -15z"/>
</g>
</svg>
