<svg width="29" height="27" viewBox="0 0 29 27" fill="none" xmlns="http://www.w3.org/2000/svg">
<path d="M13.5507 0.866649C13.8534 -0.0475315 15.1466 -0.0475288 15.4493 0.866651L18.0276 8.65244C18.1625 9.05977 18.5422 9.33565 18.9713 9.33806L27.1727 9.38422C28.1357 9.38964 28.5353 10.6195 27.7594 11.1899L21.1514 16.0479C20.8057 16.3021 20.6607 16.7485 20.791 17.1573L23.2815 24.9716C23.5739 25.8892 22.5277 26.6492 21.7455 26.0876L15.0832 21.3042C14.7347 21.054 14.2653 21.054 13.9168 21.3042L7.25452 26.0876C6.47226 26.6492 5.42609 25.8892 5.71852 24.9716L8.20901 17.1573C8.3393 16.7485 8.19427 16.3021 7.84856 16.0479L1.24056 11.1899C0.464676 10.6195 0.864279 9.38964 1.82727 9.38422L10.0287 9.33806C10.4578 9.33565 10.8375 9.05977 10.9724 8.65244L13.5507 0.866649Z" fill="#EFBE0E"/>
</svg>
