<?xml version="1.0" standalone="no"?>
<!DOCTYPE svg PUBLIC "-//W3C//DTD SVG 20010904//EN"
 "http://www.w3.org/TR/2001/REC-SVG-20010904/DTD/svg10.dtd">
<svg version="1.0" xmlns="http://www.w3.org/2000/svg"
 width="213.000000pt" height="213.000000pt" viewBox="0 0 213.000000 213.000000"
 preserveAspectRatio="xMidYMid meet">
<metadata>
Created by potrace 1.10, written by Peter Selinger 2001-2011
</metadata>
<g transform="translate(0.000000,213.000000) scale(0.100000,-0.100000)"
fill="#000000" stroke="none">
<path d="M312 1947 c-19 -20 -22 -36 -24 -132 l-3 -110 -112 -5 c-91 -4 -115
-8 -132 -24 -21 -19 -21 -20 -21 -771 l0 -752 23 -21 23 -22 855 0 c794 0 855
2 875 18 36 29 44 57 44 155 0 77 3 96 16 101 9 3 57 6 108 6 85 0 95 2 120
25 15 14 31 25 37 25 5 0 9 280 9 740 0 490 -3 740 -10 740 -6 0 -20 11 -32
25 l-22 25 -866 0 -867 0 -21 -23z m1717 -51 c8 -9 11 -51 9 -122 l-3 -109
-829 -3 c-480 -1 -834 2 -839 7 -5 5 -9 49 -9 97 -1 127 0 132 20 137 9 3 382
5 828 6 683 1 813 -1 823 -13z m-1745 -282 c11 -30 7 -219 -6 -232 -13 -13
-153 -17 -182 -6 -13 5 -16 25 -16 114 0 60 3 115 6 124 9 24 189 24 198 0z
m1751 -594 l0 -555 -829 -3 c-459 -1 -834 2 -839 7 -6 6 -13 983 -8 1099 1 10
172 12 839 10 l837 -3 0 -555z m-1745 -153 l5 -438 25 -19 c24 -19 50 -20 727
-20 596 0 703 -2 710 -14 4 -8 6 -54 3 -103 l-5 -88 -829 -3 c-657 -2 -831 0
-838 10 -10 16 -11 1102 -1 1112 4 4 50 5 103 4 l95 -3 5 -438z"/>
<path d="M494 1798 c-10 -34 14 -43 100 -40 81 4 101 16 76 47 -9 11 -34 15
-91 15 -71 0 -78 -2 -85 -22z"/>
<path d="M780 1800 c-6 -11 -8 -25 -5 -30 3 -6 47 -10 96 -10 71 0 91 3 95 15
13 32 -15 45 -97 45 -68 0 -80 -3 -89 -20z"/>
<path d="M1272 1321 c-13 -8 -82 -165 -82 -188 0 -6 -7 -24 -15 -40 -8 -15
-29 -66 -46 -113 -17 -47 -35 -93 -40 -102 -16 -32 -10 -48 16 -48 20 0 29 8
41 38 9 20 22 50 30 65 8 16 14 34 14 42 0 7 14 46 31 86 17 41 36 88 43 104
51 122 54 186 8 156z"/>
<path d="M945 1203 c-43 -23 -49 -26 -162 -84 -92 -46 -103 -54 -103 -78 0
-17 8 -30 23 -37 12 -6 82 -41 155 -79 133 -69 163 -75 148 -28 -5 16 -149 97
-208 117 -28 9 -22 43 10 55 15 6 34 15 42 20 8 5 47 25 85 44 57 28 70 39 70
58 0 30 -21 34 -60 12z"/>
<path d="M1400 1192 c0 -27 8 -33 110 -83 117 -58 139 -84 80 -96 -17 -3 -32
-9 -35 -13 -3 -4 -38 -24 -80 -45 -68 -33 -75 -40 -75 -66 0 -35 5 -36 61 -4
24 14 51 27 59 31 8 3 29 13 45 22 17 9 57 31 90 48 33 18 62 40 63 49 4 19
-44 64 -68 65 -9 0 -20 4 -25 9 -12 12 -206 111 -217 111 -5 0 -8 -13 -8 -28z"/>
</g>
</svg>
