<svg width="146" height="50" viewBox="0 0 146 50" fill="none" xmlns="http://www.w3.org/2000/svg">
<path d="M32.9477 2.57713C32.996 2.6577 33.1572 2.73828 33.2861 2.73828C33.415 2.73828 33.4795 2.6577 33.4312 2.57713C33.3828 2.48044 33.2217 2.41597 33.0927 2.41597C32.9638 2.41597 32.8993 2.48044 32.9477 2.57713Z" fill="white"/>
<path d="M33.833 2.78556C33.8491 2.97894 34.5421 3.70413 34.9288 3.92975C35.0578 4.01032 35.1222 3.91363 35.1222 3.62356C35.1222 3.33348 35.0255 3.15621 34.7999 3.10787C34.6227 3.05952 34.4776 2.96283 34.4776 2.89837C34.4776 2.83391 34.3326 2.73721 34.1553 2.68887C33.9619 2.64052 33.833 2.68887 33.833 2.78556Z" fill="white"/>
<path d="M3.24724 3.86497C2.21586 4.50959 1.99025 6.04054 2.76378 7.10415C3.39228 7.94215 3.82739 8.05496 6.43808 8.05496C8.06572 8.05496 8.87149 8.11942 9.06487 8.24834C9.20991 8.37726 9.49999 9.16691 9.74172 10.1499C9.96733 11.0846 10.2735 12.2772 10.4024 12.809C10.9665 14.9845 11.1276 15.6775 11.8367 18.6105C12.2396 20.2865 12.6747 22.1075 12.8197 22.6393C12.9648 23.1711 13.1743 24.0091 13.3032 24.4926C13.4321 24.976 13.7544 26.3136 14.0284 27.4739C14.8019 30.7776 15.1081 31.6961 15.5432 31.9701C15.9945 32.2602 16.6552 32.2924 17.8961 32.0668C19.9266 31.7122 21.7637 31.4061 23.3269 31.1804C24.2294 31.0515 25.712 30.8259 26.6306 30.697C27.533 30.5519 29.0318 30.3263 29.9664 30.1974C32.6738 29.7945 33.4312 29.6011 33.4312 29.3272C33.4312 29.1821 32.3515 28.1346 31.0139 26.9905C29.6925 25.8463 28.3871 24.7182 28.1132 24.4765C27.8553 24.2509 27.2268 23.7029 26.7273 23.2678C26.2438 22.8327 25.3091 22.0108 24.6484 21.4307C23.0207 19.9803 22.8918 19.8997 22.779 20.2059C22.6501 20.5443 22.7307 21.0278 23.3592 23.9285C24.2294 27.9413 24.2133 27.8929 24.0199 28.6342C23.8104 29.4239 23.198 30.1974 22.5373 30.5358C22.2794 30.6809 21.6509 30.7776 21.0708 30.7776C19.2981 30.7614 18.4762 29.9396 17.9605 27.6351C17.7027 26.4425 17.6543 26.233 16.494 20.7861C16.0912 18.8845 15.6722 16.8862 15.5432 16.3543C15.4304 15.8225 15.2532 14.9845 15.1404 14.5011C15.0437 14.0176 14.8503 13.1635 14.7214 12.5995C14.4796 11.5842 14.5441 10.2466 14.8342 10.0533C14.9147 10.0049 14.9792 9.82764 14.9792 9.65037C14.9792 9.37641 14.8986 9.34418 14.109 9.44087C12.997 9.5698 12.7069 9.39253 12.4652 8.42561C12.3524 8.00661 12.1429 7.1525 11.9979 6.55623C11.6756 5.26701 11.1599 4.57405 10.338 4.36455C9.6128 4.17116 6.26081 3.70382 4.82654 3.59101C3.95632 3.54267 3.68236 3.5749 3.24724 3.86497Z" fill="white"/>
<path d="M134.378 4.28454C134.2 4.49404 134.152 6.42788 134.136 14.405C134.12 25.2345 134.184 26.6365 134.716 27.3617C135.409 28.2964 136.054 28.4414 139.47 28.4414H142.532V26.7493V25.0572L141.807 25.0088C140.518 24.9444 139.76 24.6704 139.567 24.187C139.438 23.913 139.406 22.0275 139.422 18.4499L139.47 13.1319L140.115 12.9868C141.807 12.6162 142.677 11.7298 142.58 10.4567L142.532 9.74763L141.13 9.66706C140.373 9.61871 139.68 9.52202 139.599 9.45756C139.535 9.37698 139.438 8.49064 139.39 7.49149C139.293 5.38038 139.116 4.99361 137.939 4.38123C137.021 3.93 134.732 3.86554 134.378 4.28454Z" fill="white"/>
<path d="M35.2195 4.67177C35.2678 4.97796 35.3162 5.59034 35.3 6.00934C35.2839 6.42834 35.3806 7.29856 35.5257 7.94318C35.6707 8.58779 35.8963 9.60305 36.0252 10.2316C36.1542 10.8439 36.3475 11.6497 36.4281 11.9881C36.5248 12.3265 36.6537 12.955 36.7343 13.3579C37.105 15.3401 38.1363 20.4487 38.4264 21.6734C38.5392 22.2052 38.7648 23.2205 38.9099 23.9296C39.0549 24.6386 39.2483 25.4283 39.3289 25.7023C39.4256 25.9601 39.5384 26.7498 39.5867 27.4266C39.6351 28.1196 39.7318 28.6836 39.7962 28.6836C40.0057 28.6836 40.5375 27.9423 40.7309 27.3944C41.2144 25.944 41.2627 25.1221 40.9243 24.0907C40.5536 22.9465 40.1185 20.2714 40.1185 19.0144C40.1185 17.8702 40.5375 15.2756 40.8598 14.341C41.585 12.3104 42.3908 11.134 44.1635 9.55471C44.6631 9.11959 44.792 8.82952 45.0176 7.87871C45.1626 7.25022 45.2754 6.55726 45.2754 6.33164C45.2754 5.70315 44.8403 5.04242 44.2924 4.84903C43.68 4.63954 43.2288 4.68788 38.233 5.57422C37.395 5.71926 36.4926 5.78372 36.1703 5.73538C35.6868 5.63868 35.6062 5.55811 35.6062 5.17134C35.6062 4.92961 35.4934 4.59119 35.3484 4.41392C35.1067 4.12384 35.1067 4.13996 35.2195 4.67177Z" fill="white"/>
<path d="M27.1466 7.34722C26.4375 7.46003 25.2772 7.6373 24.5682 7.71787C23.8591 7.81457 23.0211 7.9596 22.7149 8.0563C21.9736 8.26579 20.2009 8.26579 19.798 8.04018C19.6207 7.9596 19.2823 7.89514 19.0567 7.92737C18.6216 7.97572 18.6216 7.97572 19.3468 8.70091C20.1203 9.47444 23.2628 12.2624 23.988 12.7942C24.2297 12.9876 24.7454 13.4388 25.1483 13.8095C25.5351 14.1801 26.083 14.6475 26.3408 14.8408C26.6148 15.0503 26.9049 15.3082 26.9855 15.4049C27.0821 15.5016 28.0813 16.404 29.2094 17.4032C31.53 19.4337 31.7395 19.4821 31.4655 17.935C31.256 16.7586 30.3697 12.5041 30.0474 11.1182C29.9023 10.5381 29.6928 9.55502 29.58 8.94264C29.3383 7.58895 29.0966 7.08938 28.7098 7.10549C28.5648 7.12161 27.8557 7.2183 27.1466 7.34722Z" fill="white"/>
<path d="M48.336 9.64989C46.6923 10.0689 45.4514 10.7457 44.4522 11.7449C42.6957 13.5176 42.0188 15.5481 42.0188 19.1579C42.0027 22.6872 42.7118 24.8144 44.4361 26.5549C45.4997 27.6346 46.5795 28.247 48.2232 28.7143C49.8025 29.1817 53.5735 29.2139 55.0239 28.7788C57.3606 28.0697 59.0527 26.716 60.0357 24.7177C60.8737 23.0256 60.8415 22.9773 58.8916 22.9128C56.571 22.8483 56.0875 22.945 54.8466 23.7991C53.1867 24.9433 51.8492 25.2173 50.1409 24.7822C48.9968 24.4921 47.9815 23.3801 47.6108 22.0103C47.3691 21.1562 47.3691 20.9145 47.5303 20.705C47.7075 20.4955 48.61 20.4633 54.3148 20.4633C59.1978 20.4633 60.9221 20.4149 61.0027 20.2699C61.3894 19.6575 60.9382 15.7898 60.3258 14.3394C59.5201 12.454 58.3436 11.1003 56.9416 10.4073C56.5871 10.2462 56.1842 10.0528 56.023 9.9722C54.7822 9.32758 50.2699 9.1342 48.336 9.64989ZM52.945 13.3886C53.4768 13.5337 53.8475 13.7754 54.347 14.3394C55.2817 15.3708 55.7168 16.7729 55.1689 16.9824C54.766 17.1435 47.9493 17.0952 47.6914 16.934C47.498 16.8051 47.498 16.6601 47.7398 15.8865C48.0782 14.839 49.0934 13.6948 49.9476 13.4209C50.705 13.1791 52.0587 13.163 52.945 13.3886Z" fill="white"/>
<path d="M68.6419 9.64989C65.5156 10.4718 63.614 12.2928 62.7276 15.3708C62.4053 16.515 62.2603 20.6728 62.5181 21.962C63.0016 24.4438 63.9685 26.2326 65.4511 27.3284C66.4019 28.0375 66.8048 28.2309 68.2391 28.7143C69.6089 29.1817 73.8633 29.2139 75.4104 28.7788C78.1016 28.0052 79.9388 26.3615 80.8251 23.9281C81.5503 21.9781 81.7437 18.6584 81.2764 16.2572C80.5834 12.6151 78.3917 10.3106 74.943 9.58543C73.3476 9.24701 70.0279 9.27924 68.6419 9.64989ZM73.7344 13.8399C75.0397 14.4361 75.8294 15.951 75.9905 18.2071C76.1839 20.9145 75.5071 23.2673 74.2662 24.1537C73.4282 24.7661 72.0262 25.0561 70.9787 24.8144C68.7548 24.3148 67.675 22.4777 67.675 19.174C67.675 16.4989 68.4324 14.7101 69.8989 13.9366C70.882 13.437 72.7191 13.3886 73.7344 13.8399Z" fill="white"/>
<path d="M89.5124 9.58814C87.3529 10.1199 85.8864 10.9257 84.8228 12.1505C84.0654 13.0046 83.2758 14.745 82.9051 16.3243C82.5667 17.8553 82.6311 20.9494 83.0663 22.561C83.9365 25.8485 85.8381 27.8307 89.0289 28.7815C90.4793 29.2005 94.4437 29.2005 95.8779 28.7654C98.1824 28.0724 99.8584 26.7026 100.809 24.6882C101.647 22.98 101.631 22.98 99.4233 22.9155C97.2316 22.851 96.6192 23.0122 95.4751 23.8663C94.073 24.9299 92.5421 25.2361 90.9789 24.7849C89.0934 24.237 87.9975 22.2226 87.9814 19.2896C87.9814 18.0487 88.3682 16.0665 88.7389 15.4702C89.593 14.0682 90.576 13.5364 92.2681 13.5364C93.7346 13.5364 94.2664 13.7459 95.2333 14.745L95.9424 15.4702H98.6175C100.1 15.4702 101.341 15.4219 101.405 15.3735C101.502 15.2768 101.019 13.7942 100.696 13.198C99.939 11.8604 98.3919 10.5389 97.006 10.0071C95.2172 9.34641 91.3334 9.12079 89.5124 9.58814Z" fill="white"/>
<path d="M108.172 9.60318C106.206 10.0222 104.74 10.973 103.885 12.375C103.466 13.0519 103.096 14.1638 103.225 14.3733C103.273 14.4378 104.417 14.5022 105.771 14.5022H108.22L108.672 14.0349C109.22 13.4547 110.138 13.213 111.701 13.213C113.829 13.213 115.053 13.8415 115.053 14.9212C115.053 15.7431 114.167 16.3555 112.491 16.6617C111.75 16.8067 110.879 16.9195 110.557 16.9195C109.832 16.9356 107.237 17.4513 106.593 17.7253C103.644 18.9501 102.483 20.4649 102.483 23.1078C102.483 26.0408 103.821 27.7168 106.996 28.7804C108.398 29.2478 112.056 29.1672 114.135 28.6193C115.005 28.3936 116.036 28.0552 116.423 27.8618C117.422 27.3623 118.647 26.2342 119.227 25.2995C120.114 23.8652 120.226 23.0434 120.226 18.0476C120.226 13.9382 120.194 13.4709 119.92 12.8262C119.147 11.1019 117.519 10.0222 115.005 9.58706C113.345 9.29699 109.526 9.29699 108.172 9.60318ZM115.166 20.9484C115.102 22.0281 114.989 22.4793 114.65 23.0917C113.845 24.5099 112.507 25.1867 110.46 25.1867C109.236 25.1867 109.042 25.1383 108.543 24.7516C107.576 24.0264 107.382 22.4954 108.14 21.5446C108.511 21.0612 110.025 20.3038 110.589 20.3038C110.815 20.3038 111.347 20.2071 111.766 20.0781C115.456 18.9984 115.295 18.9662 115.166 20.9484Z" fill="white"/>
<path d="M130.686 9.66752C125.594 10.0221 122.903 12.0365 121.662 16.4359C121.452 17.2095 121.227 27.5555 121.404 28.2968L121.501 28.6836H123.966C125.674 28.6836 126.496 28.6191 126.625 28.4902C126.77 28.3452 126.819 26.927 126.819 23.0755C126.819 17.0483 126.867 16.6938 127.882 15.7108C128.769 14.8405 129.832 14.5021 131.589 14.5021H132.942V12.1009C132.942 10.0543 132.91 9.68363 132.685 9.60305C132.539 9.55471 132.427 9.52248 132.411 9.53859C132.394 9.53859 131.621 9.60305 130.686 9.66752Z" fill="white"/>
<path d="M130.752 31.4871C130.139 31.761 129.543 32.4862 129.672 32.8085C129.785 33.1147 130.961 33.0986 131.493 32.7924C131.992 32.5023 132.476 32.4862 133.024 32.7441C133.846 33.1147 133.362 33.7593 132.105 33.9205C130.977 34.0816 129.962 34.5329 129.64 35.0324C129.253 35.6126 129.269 36.8212 129.672 37.353C130.236 38.1266 130.945 38.3844 132.218 38.2716C133.556 38.1588 134.458 37.6592 134.813 36.8212C135.071 36.1766 135.135 32.9697 134.877 32.3251C134.619 31.6321 134.007 31.3743 132.557 31.3098C131.67 31.2776 131.09 31.3259 130.752 31.4871ZM133.395 35.4675C133.459 36.1605 133.072 36.6923 132.363 36.8857C131.67 37.0791 131.106 36.789 131.042 36.1927C130.977 35.6126 131.154 35.4353 132.105 35.113C133.169 34.7424 133.33 34.7907 133.395 35.4675Z" fill="white"/>
<path d="M137.76 31.6341C136.713 32.182 136.326 33.0361 136.326 34.7766C136.326 36.6621 136.81 37.5484 138.147 38.1125C139.324 38.5959 140.806 38.3381 141.58 37.5162C142.192 36.8555 142.337 36.5009 142.047 36.2592C141.789 36.0497 141.193 36.1625 140.226 36.6137C139.372 37.0166 138.631 36.8716 138.276 36.2431C137.809 35.4051 138.051 35.2923 140.178 35.2923C141.709 35.2923 142.16 35.2439 142.353 35.0344C142.659 34.7282 142.659 34.7605 142.369 33.6163C141.918 31.8919 141.129 31.2634 139.436 31.2634C138.743 31.2634 138.276 31.3763 137.76 31.6341ZM140.226 33.0039C141.016 33.7291 140.79 34.003 139.404 34.003C138.566 34.003 138.276 33.9386 138.196 33.7613C138.067 33.3907 138.244 33.0522 138.727 32.7944C139.34 32.456 139.646 32.5043 140.226 33.0039Z" fill="white"/>
<path d="M21.9894 32.147C20.7646 32.8077 20.2489 33.7585 20.265 35.3217C20.2972 37.739 22.1505 39.6406 24.4872 39.6406C26.2921 39.6406 27.0657 38.851 27.0657 36.9655C27.0657 35.9019 27.0334 35.7891 26.4855 35.1606C25.8248 34.387 25.8409 33.9036 26.5016 34.0647C27.0979 34.2098 27.2429 33.7263 26.7273 33.3234C25.3897 32.2437 22.9402 31.6313 21.9894 32.147Z" fill="white"/>
<path d="M36.6053 32.7271C35.1227 33.7102 35.0421 36.5303 36.4603 37.9968C37.3627 38.9315 37.9429 39.2055 39.1354 39.2216C40.8759 39.2538 41.6333 38.5448 41.6172 36.901C41.6011 35.9663 41.1176 34.806 40.7469 34.806C40.6664 34.806 40.6019 34.6932 40.6019 34.5643C40.6019 34.4031 40.7631 34.3225 41.0693 34.3225C41.73 34.3225 41.8267 34.0647 41.3271 33.6135C40.1184 32.5015 37.6528 32.0342 36.6053 32.7271Z" fill="white"/>
<path d="M47.2744 35.629C44.5832 38.9971 42.875 40.4475 39.7647 41.9784C35.8809 43.8962 30.2083 44.7342 25.5349 44.0734C22.3118 43.6222 19.9751 42.7197 16.4781 40.5603C15.6723 40.0446 14.931 39.6417 14.8343 39.6417C14.367 39.6417 14.786 40.2702 16.2525 41.7045C19.1854 44.6052 22.2151 46.249 26.1634 47.0709C27.5332 47.361 28.1778 47.3932 30.7562 47.3448C33.6087 47.2804 34.1566 47.1998 36.2516 46.6197C41.908 45.0404 46.0175 41.4466 48.6604 35.6935C49.9012 33.0183 49.3694 32.9861 47.2744 35.629Z" fill="white"/>
<path d="M126.916 37.2081C126.481 37.6754 126.819 38.2233 127.512 38.1589C127.979 38.1105 128.028 38.0622 128.028 37.5465C128.028 37.063 127.963 36.9824 127.609 36.9341C127.367 36.9019 127.093 37.0147 126.916 37.2081Z" fill="white"/>
</svg>
