<svg width="139" height="52" viewBox="0 0 139 52" fill="none" xmlns="http://www.w3.org/2000/svg">
<path d="M12.1536 5.91436C9.94516 6.8282 10.8971 26.1712 13.2959 28.4558C15.1617 30.2455 15.5425 30.3216 16.8751 29.3697C19.5405 27.3897 20.3401 27.9989 20.3401 31.9208C20.3401 35.3858 20.5686 35.7666 25.5947 40.7547L30.8113 45.9331L39.9878 46.2377C51.9058 46.6185 51.5631 46.9231 51.5631 35.3097V26.4378L49.1643 23.9628C46.9178 21.6401 46.6893 21.5639 45.0139 22.6682C42.6151 24.2674 41.6632 23.4297 41.6632 19.6601C41.6632 16.7663 41.2062 16.0428 36.1801 10.9405L30.659 5.41936L21.9013 5.49551C17.0655 5.49551 12.6867 5.72397 12.1536 5.91436ZM26.2801 16.652C29.3263 20.3074 33.3243 25.0289 35.1901 27.1232C37.0559 29.2174 39.1501 31.6924 39.7974 32.6443C41.6251 35.2716 42.082 34.7385 41.7774 30.1693L41.5109 25.9808H44.2524H46.9939V33.977V41.9731L44.1382 41.935C41.5109 41.897 32.4486 32.987 31.192 29.1793C31.0397 28.7605 28.5267 25.9428 25.6328 22.8966L20.3401 17.3755V21.6782V25.9808H17.6748H15.0094V17.9847V9.98858H17.9032C20.5686 9.98858 21.1397 10.4074 26.2801 16.652ZM36.4086 18.7082C39.112 21.5639 38.1601 22.7443 34.5428 21.0309C31.649 19.6601 30.4305 16.8043 31.4205 13.682C31.9536 12.0447 31.9916 12.0447 33.0959 14.177C33.7432 15.3955 35.2282 17.4136 36.4086 18.7082ZM28.7932 31.5781C30.3163 32.3397 30.659 33.1393 30.8113 36.2616C31.0016 40.0312 31.0016 40.0693 29.669 38.2797C28.9455 37.2897 26.9655 34.9289 25.2901 32.987C23.6147 31.0831 22.5867 29.7124 23.0436 29.9789C23.4624 30.2455 24.3382 30.1312 24.9094 29.7885C25.5947 29.3697 26.204 29.4078 26.5086 29.9028C26.7751 30.3216 27.8032 31.0831 28.7932 31.5781Z" fill="white"/>
<path d="M75.4642 23.7109H72.2216L66.7982 15.5V23.7109H63.5556V10.399H66.7982L72.2216 18.6479V10.399H75.4642V23.7109ZM89.6855 18.2496C89.6855 18.553 89.6665 18.8691 89.6286 19.1978H82.29C82.3405 19.8552 82.5491 20.3608 82.9158 20.7148C83.295 21.0561 83.7564 21.2268 84.3 21.2268C85.1091 21.2268 85.6717 20.8855 85.9877 20.2028H89.439C89.262 20.8981 88.9396 21.5239 88.4719 22.0801C88.0168 22.6364 87.4416 23.0725 86.7462 23.3886C86.0509 23.7046 85.2735 23.8626 84.4138 23.8626C83.3772 23.8626 82.4543 23.6414 81.6452 23.1989C80.8362 22.7565 80.2041 22.1244 79.749 21.3027C79.2938 20.4809 79.0663 19.5201 79.0663 18.4203C79.0663 17.3205 79.2875 16.3597 79.73 15.538C80.1851 14.7162 80.8172 14.0841 81.6263 13.6417C82.4354 13.1992 83.3645 12.978 84.4138 12.978C85.4378 12.978 86.348 13.1929 87.1445 13.6227C87.9409 14.0525 88.5604 14.6657 89.0028 15.4621C89.4579 16.2585 89.6855 17.1877 89.6855 18.2496ZM86.367 17.3963C86.367 16.8401 86.1774 16.3976 85.7981 16.0689C85.4188 15.7402 84.9448 15.5759 84.3759 15.5759C83.8323 15.5759 83.3709 15.7339 82.9916 16.0499C82.625 16.366 82.3974 16.8148 82.3089 17.3963H86.367ZM99.7967 13.0159C101.01 13.0159 101.984 13.4204 102.717 14.2295C103.45 15.026 103.817 16.1258 103.817 17.5291V23.7109H100.593V17.9652C100.593 17.2572 100.41 16.7073 100.043 16.3154C99.6766 15.9235 99.1836 15.7276 98.5641 15.7276C97.9446 15.7276 97.4516 15.9235 97.085 16.3154C96.7184 16.7073 96.5351 17.2572 96.5351 17.9652V23.7109H93.2924V9.67843H96.5351V14.5519C96.8638 14.0841 97.3126 13.7112 97.8814 13.4331C98.4503 13.155 99.0887 13.0159 99.7967 13.0159ZM107.322 18.4013C107.322 17.3141 107.524 16.3597 107.928 15.538C108.346 14.7162 108.908 14.0841 109.616 13.6417C110.324 13.1992 111.114 12.978 111.987 12.978C112.732 12.978 113.383 13.1297 113.94 13.4331C114.509 13.7365 114.945 14.1347 115.248 14.6277V13.1297H118.491V23.7109H115.248V22.2129C114.932 22.7059 114.49 23.1041 113.921 23.4075C113.364 23.7109 112.713 23.8626 111.968 23.8626C111.108 23.8626 110.324 23.6414 109.616 23.1989C108.908 22.7438 108.346 22.1054 107.928 21.2837C107.524 20.4493 107.322 19.4885 107.322 18.4013ZM115.248 18.4203C115.248 17.6112 115.021 16.9728 114.565 16.5051C114.123 16.0373 113.579 15.8034 112.935 15.8034C112.29 15.8034 111.74 16.0373 111.285 16.5051C110.842 16.9602 110.621 17.5923 110.621 18.4013C110.621 19.2104 110.842 19.8552 111.285 20.3356C111.74 20.8033 112.29 21.0372 112.935 21.0372C113.579 21.0372 114.123 20.8033 114.565 20.3356C115.021 19.8678 115.248 19.2294 115.248 18.4203Z" fill="white"/>
<path d="M72.3174 34.581C72.1115 34.2017 71.8135 33.9145 71.4234 33.7195C71.0442 33.5136 70.5945 33.4107 70.0744 33.4107C69.175 33.4107 68.4544 33.7087 67.9126 34.3046C67.3708 34.8898 67.0999 35.6754 67.0999 36.6615C67.0999 37.7125 67.3816 38.5361 67.9451 39.132C68.5194 39.7172 69.305 40.0097 70.3019 40.0097C70.9846 40.0097 71.5589 39.8364 72.0248 39.4896C72.5016 39.1429 72.8484 38.6444 73.0651 37.9943H69.538V35.9463H75.5844V38.5306C75.3785 39.2241 75.0264 39.8689 74.5279 40.4649C74.0403 41.0608 73.4172 41.543 72.6587 41.9115C71.9002 42.2799 71.0442 42.4641 70.0906 42.4641C68.9637 42.4641 67.9559 42.2203 67.0674 41.7327C66.1897 41.2342 65.5016 40.5461 65.0032 39.6684C64.5155 38.7907 64.2717 37.7884 64.2717 36.6615C64.2717 35.5345 64.5155 34.5322 65.0032 33.6545C65.5016 32.7659 66.1897 32.0779 67.0674 31.5902C67.9451 31.0918 68.9474 30.8426 70.0744 30.8426C71.4397 30.8426 72.5883 31.1731 73.5202 31.8341C74.4629 32.495 75.086 33.4107 75.3894 34.581H72.3174ZM81.5288 34.8248C81.8538 34.3263 82.2602 33.9362 82.7478 33.6545C83.2354 33.3619 83.7772 33.2156 84.3732 33.2156V36.1576H83.6093C82.9158 36.1576 82.3956 36.3093 82.0489 36.6127C81.7021 36.9053 81.5288 37.4254 81.5288 38.1731V42.3828H78.7494V33.3132H81.5288V34.8248ZM91.4556 42.5128C90.567 42.5128 89.7652 42.3232 89.05 41.944C88.3457 41.5647 87.7876 41.0229 87.3758 40.3186C86.9749 39.6142 86.7744 38.7907 86.7744 37.848C86.7744 36.9161 86.9803 36.098 87.3921 35.3936C87.8039 34.6785 88.3673 34.1313 89.0825 33.752C89.7977 33.3728 90.5995 33.1831 91.4881 33.1831C92.3766 33.1831 93.1785 33.3728 93.8936 33.752C94.6088 34.1313 95.1723 34.6785 95.584 35.3936C95.9958 36.098 96.2017 36.9161 96.2017 37.848C96.2017 38.7799 95.9904 39.6034 95.5678 40.3186C95.156 41.0229 94.5871 41.5647 93.8611 41.944C93.146 42.3232 92.3441 42.5128 91.4556 42.5128ZM91.4556 40.1073C91.9865 40.1073 92.4362 39.9122 92.8046 39.5221C93.1839 39.132 93.3735 38.574 93.3735 37.848C93.3735 37.122 93.1893 36.5639 92.8209 36.1738C92.4633 35.7837 92.019 35.5887 91.4881 35.5887C90.9463 35.5887 90.4966 35.7837 90.139 36.1738C89.7814 36.5531 89.6026 37.1111 89.6026 37.848C89.6026 38.574 89.776 39.132 90.1227 39.5221C90.4803 39.9122 90.9246 40.1073 91.4556 40.1073ZM108.257 33.3132V42.3828H105.478V41.1475C105.196 41.5484 104.812 41.8735 104.324 42.1228C103.847 42.3611 103.316 42.4803 102.731 42.4803C102.038 42.4803 101.425 42.3286 100.894 42.0252C100.364 41.711 99.9518 41.2613 99.6592 40.6762C99.3666 40.091 99.2203 39.4029 99.2203 38.6119V33.3132H101.983V38.2381C101.983 38.8449 102.141 39.3162 102.455 39.6522C102.769 39.9881 103.192 40.156 103.723 40.156C104.264 40.156 104.692 39.9881 105.007 39.6522C105.321 39.3162 105.478 38.8449 105.478 38.2381V33.3132H108.257ZM114.659 34.5972C114.93 34.1746 115.303 33.8333 115.78 33.5732C116.257 33.3132 116.815 33.1831 117.454 33.1831C118.202 33.1831 118.879 33.3728 119.486 33.752C120.093 34.1313 120.57 34.6731 120.916 35.3774C121.274 36.0817 121.453 36.8998 121.453 37.8317C121.453 38.7636 121.274 39.5871 120.916 40.3023C120.57 41.0067 120.093 41.5539 119.486 41.944C118.879 42.3232 118.202 42.5128 117.454 42.5128C116.826 42.5128 116.268 42.3828 115.78 42.1228C115.303 41.8627 114.93 41.5268 114.659 41.115V46.7063H111.879V33.3132H114.659V34.5972ZM118.625 37.8317C118.625 37.1382 118.43 36.5964 118.04 36.2063C117.66 35.8054 117.189 35.6049 116.625 35.6049C116.073 35.6049 115.601 35.8054 115.211 36.2063C114.832 36.6073 114.642 37.1545 114.642 37.848C114.642 38.5415 114.832 39.0887 115.211 39.4896C115.601 39.8906 116.073 40.091 116.625 40.091C117.178 40.091 117.649 39.8906 118.04 39.4896C118.43 39.0779 118.625 38.5252 118.625 37.8317Z" fill="white"/>
</svg>
