<svg width="188" height="50" viewBox="0 0 188 50" fill="none" xmlns="http://www.w3.org/2000/svg">
<path d="M31.4627 11.0359L22.5814 16.1426L22.4704 22.0265C22.4704 25.3569 22.6925 28.0213 23.0255 27.9103C23.4696 27.9103 25.3568 25.912 27.4661 23.4697L31.1297 19.1401L28.5763 18.1409C26.0229 17.1418 26.0229 17.0308 29.3534 17.0308C33.35 16.9197 39.8999 22.6926 37.4576 24.2468C36.6804 24.6909 35.9033 24.5798 35.5703 23.8027C34.7932 21.3604 32.4618 22.4705 27.2441 27.7993C24.2467 30.7967 22.0264 34.1272 22.0264 35.5704C22.0264 39.1229 25.3568 37.4577 26.1339 33.4611C26.8 29.9086 27.4661 29.5755 29.7975 31.5738C31.1297 32.795 31.1297 32.684 29.9085 31.1298C28.5763 29.4645 28.7983 28.7984 31.0186 27.0222C33.683 24.8019 33.683 24.8019 36.2364 27.6883C37.5686 29.2425 38.6787 30.9077 38.6787 31.3518C38.6787 32.906 34.5711 35.6814 30.4636 37.1246C23.3586 39.4559 24.3577 40.8991 32.7949 40.4551C37.0135 40.2331 40.455 39.9 40.677 39.678C40.788 39.567 40.788 31.9069 40.677 22.6926L40.344 5.92919L31.4627 11.0359ZM37.5686 14.8105C37.5686 16.8087 37.3465 16.9197 35.9033 15.8096C34.2381 14.4774 34.5711 12.4791 36.5694 12.4791C37.1245 12.4791 37.5686 13.5893 37.5686 14.8105Z" fill="white"/>
<path d="M42.8994 7.15169C43.6765 7.9288 44.2316 9.372 44.2316 10.4822C44.2316 11.7033 46.4519 13.5906 50.4485 15.5889L56.7764 18.8083L56.5544 29.4658L56.3323 40.2344H59.2188C61.5501 40.2344 62.1052 39.7903 61.5501 38.4581C61.217 37.459 60.884 31.7972 60.884 25.8023V14.9228L57.5535 13.5906C55.7773 12.8135 54.223 11.4813 54.223 10.5932C54.223 9.59403 53.557 9.14997 52.5578 9.59403C51.5587 9.92708 49.2273 9.26099 47.2291 8.03981C43.2325 5.59747 40.9012 5.15341 42.8994 7.15169Z" fill="white"/>
<path d="M48.1147 20.2501C47.2266 21.6933 48.0037 22.9144 49.6689 22.3594C50.335 22.0263 50.4461 21.2492 49.891 20.3611C49.2249 19.2509 48.7808 19.2509 48.1147 20.2501Z" fill="white"/>
<path d="M53.4452 21.029C52.6681 21.362 52.002 22.0281 52.002 22.5832C52.002 23.2493 52.557 23.3603 53.1121 23.0272C53.7782 22.6942 54.2223 22.9162 54.2223 23.6933C54.2223 24.4704 53.0011 24.6925 50.3367 24.2484C46.8952 23.5823 46.4512 23.8044 46.4512 25.8026C46.4512 28.245 47.5613 28.689 49.5596 26.6908C50.4477 25.8026 51.2248 25.8026 52.446 26.8018C53.7782 27.9119 54.1113 27.5789 54.7774 24.6925C55.6655 20.8069 55.4434 20.3629 53.4452 21.029Z" fill="white"/>
<path d="M49.6696 35.2381C49.5586 36.1262 49.4476 37.4584 49.3365 38.1245C49.2255 38.9016 50.5577 39.5677 52.334 39.7897C54.5543 40.0117 55.3314 39.5677 55.3314 38.1245C55.3314 34.3499 50.0026 31.6855 49.6696 35.2381Z" fill="white"/>
<path d="M73.3128 32.582V11.9268H77.6798V20.4491H86.545V11.9268H90.902V32.582H86.545V24.0497H77.6798V32.582H73.3128ZM101.71 11.9268V32.582H97.3426V11.9268H101.71ZM107.356 15.5274V11.9268H124.32V15.5274H117.996V32.582H113.68V15.5274H107.356ZM147.992 22.2544C147.992 24.5069 147.565 26.4231 146.711 28.0032C145.864 29.5833 144.707 30.7902 143.241 31.6239C141.782 32.4509 140.142 32.8644 138.32 32.8644C136.484 32.8644 134.837 32.4476 133.378 31.6138C131.919 30.7801 130.766 29.5732 129.918 27.9931C129.071 26.413 128.648 24.5001 128.648 22.2544C128.648 20.002 129.071 18.0857 129.918 16.5057C130.766 14.9256 131.919 13.7221 133.378 12.895C134.837 12.0613 136.484 11.6444 138.32 11.6444C140.142 11.6444 141.782 12.0613 143.241 12.895C144.707 13.7221 145.864 14.9256 146.711 16.5057C147.565 18.0857 147.992 20.002 147.992 22.2544ZM143.564 22.2544C143.564 20.7954 143.346 19.5649 142.909 18.5631C142.478 17.5613 141.87 16.8015 141.083 16.2838C140.296 15.7661 139.375 15.5072 138.32 15.5072C137.264 15.5072 136.343 15.7661 135.556 16.2838C134.77 16.8015 134.158 17.5613 133.721 18.5631C133.29 19.5649 133.075 20.7954 133.075 22.2544C133.075 23.7135 133.29 24.9439 133.721 25.9457C134.158 26.9476 134.77 27.7073 135.556 28.2251C136.343 28.7428 137.264 29.0017 138.32 29.0017C139.375 29.0017 140.296 28.7428 141.083 28.2251C141.87 27.7073 142.478 26.9476 142.909 25.9457C143.346 24.9439 143.564 23.7135 143.564 22.2544ZM161.863 25.4011H165.574L167.44 27.8015L169.276 29.9396L172.735 34.2764H168.661L166.28 31.3516L165.06 29.6169L161.863 25.4011ZM173.048 22.2544C173.048 24.5069 172.621 26.4231 171.767 28.0032C170.92 29.5833 169.763 30.7902 168.298 31.6239C166.838 32.4509 165.198 32.8644 163.376 32.8644C161.54 32.8644 159.893 32.4476 158.434 31.6138C156.975 30.7801 155.822 29.5732 154.975 27.9931C154.127 26.413 153.704 24.5001 153.704 22.2544C153.704 20.002 154.127 18.0857 154.975 16.5057C155.822 14.9256 156.975 13.7221 158.434 12.895C159.893 12.0613 161.54 11.6444 163.376 11.6444C165.198 11.6444 166.838 12.0613 168.298 12.895C169.763 13.7221 170.92 14.9256 171.767 16.5057C172.621 18.0857 173.048 20.002 173.048 22.2544ZM168.62 22.2544C168.62 20.7954 168.402 19.5649 167.965 18.5631C167.534 17.5613 166.926 16.8015 166.139 16.2838C165.353 15.7661 164.431 15.5072 163.376 15.5072C162.32 15.5072 161.399 15.7661 160.612 16.2838C159.826 16.8015 159.214 17.5613 158.777 18.5631C158.346 19.5649 158.131 20.7954 158.131 22.2544C158.131 23.7135 158.346 24.9439 158.777 25.9457C159.214 26.9476 159.826 27.7073 160.612 28.2251C161.399 28.7428 162.32 29.0017 163.376 29.0017C164.431 29.0017 165.353 28.7428 166.139 28.2251C166.926 27.7073 167.534 26.9476 167.965 25.9457C168.402 24.9439 168.62 23.7135 168.62 22.2544Z" fill="white"/>
</svg>
