<svg width="177" height="47" viewBox="0 0 177 47" fill="none" xmlns="http://www.w3.org/2000/svg">
<path d="M63.9558 15.1321V34.457H60.4267L52.0193 22.294H51.8777V34.457H47.7919V15.1321H51.3776L59.719 27.2857H59.8889V15.1321H63.9558ZM73.8613 34.7401C72.3704 34.7401 71.0871 34.4382 70.0114 33.8343C68.942 33.2241 68.1179 32.3622 67.5391 31.2488C66.9604 30.129 66.671 28.8049 66.671 27.2762C66.671 25.7853 66.9604 24.4769 67.5391 23.3508C68.1179 22.2248 68.9325 21.3473 69.9831 20.7182C71.0399 20.0891 72.2792 19.7746 73.7009 19.7746C74.657 19.7746 75.5472 19.9287 76.3713 20.237C77.2016 20.5389 77.9251 20.995 78.5415 21.6052C79.1643 22.2154 79.6487 22.9828 79.9947 23.9076C80.3407 24.826 80.5137 25.9017 80.5137 27.1347V28.2387H68.2752V25.7476H76.7298C76.7298 25.1688 76.604 24.6562 76.3524 24.2095C76.1008 23.7629 75.7516 23.4137 75.305 23.1621C74.8646 22.9042 74.3519 22.7752 73.7669 22.7752C73.1567 22.7752 72.6157 22.9168 72.1439 23.1999C71.6784 23.4767 71.3135 23.8509 71.0493 24.3227C70.7851 24.7883 70.6499 25.3072 70.6436 25.8797V28.2481C70.6436 28.9653 70.7757 29.5849 71.0399 30.107C71.3104 30.6292 71.691 31.0318 72.1817 31.3148C72.6723 31.5979 73.2542 31.7395 73.9273 31.7395C74.374 31.7395 74.7829 31.6766 75.154 31.5507C75.5252 31.4249 75.8428 31.2362 76.107 30.9846C76.3713 30.7329 76.5726 30.4247 76.711 30.0598L80.4287 30.3052C80.24 31.1985 79.8531 31.9785 79.2681 32.6453C78.6894 33.3058 77.9408 33.8217 77.0223 34.1928C76.1102 34.5577 75.0565 34.7401 73.8613 34.7401ZM89.6855 34.7401C88.2197 34.7401 86.9522 34.4287 85.8828 33.8059C84.8196 33.1769 83.9987 32.3025 83.42 31.1827C82.8412 30.0567 82.5518 28.7514 82.5518 27.2668C82.5518 25.7696 82.8412 24.4611 83.42 23.3414C83.9987 22.2154 84.8196 21.341 85.8828 20.7182C86.9522 20.0891 88.2197 19.7746 89.6855 19.7746C91.1512 19.7746 92.4156 20.0891 93.4788 20.7182C94.5482 21.341 95.3722 22.2154 95.951 23.3414C96.5297 24.4611 96.8191 25.7696 96.8191 27.2668C96.8191 28.7514 96.5297 30.0567 95.951 31.1827C95.3722 32.3025 94.5482 33.1769 93.4788 33.8059C92.4156 34.4287 91.1512 34.7401 89.6855 34.7401ZM89.7043 31.6262C90.3712 31.6262 90.9279 31.4375 91.3745 31.0601C91.8212 30.6763 92.1577 30.1542 92.3842 29.4937C92.6169 28.8332 92.7333 28.0814 92.7333 27.2385C92.7333 26.3955 92.6169 25.6438 92.3842 24.9833C92.1577 24.3227 91.8212 23.8006 91.3745 23.4169C90.9279 23.0332 90.3712 22.8413 89.7043 22.8413C89.0312 22.8413 88.4651 23.0332 88.0059 23.4169C87.5529 23.8006 87.2101 24.3227 86.9773 24.9833C86.7509 25.6438 86.6376 26.3955 86.6376 27.2385C86.6376 28.0814 86.7509 28.8332 86.9773 29.4937C87.2101 30.1542 87.5529 30.6763 88.0059 31.0601C88.4651 31.4375 89.0312 31.6262 89.7043 31.6262ZM104.922 18.5007V15.1321H120.794V18.5007H114.877V34.457H110.839V18.5007H104.922ZM127.835 34.7401C126.344 34.7401 125.061 34.4382 123.985 33.8343C122.916 33.2241 122.092 32.3622 121.513 31.2488C120.934 30.129 120.645 28.8049 120.645 27.2762C120.645 25.7853 120.934 24.4769 121.513 23.3508C122.092 22.2248 122.907 21.3473 123.957 20.7182C125.014 20.0891 126.253 19.7746 127.675 19.7746C128.631 19.7746 129.521 19.9287 130.345 20.237C131.176 20.5389 131.899 20.995 132.516 21.6052C133.138 22.2154 133.623 22.9828 133.969 23.9076C134.315 24.826 134.488 25.9017 134.488 27.1347V28.2387H122.249V25.7476H130.704C130.704 25.1688 130.578 24.6562 130.326 24.2095C130.075 23.7629 129.726 23.4137 129.279 23.1621C128.839 22.9042 128.326 22.7752 127.741 22.7752C127.131 22.7752 126.59 22.9168 126.118 23.1999C125.652 23.4767 125.288 23.8509 125.023 24.3227C124.759 24.7883 124.624 25.3072 124.618 25.8797V28.2481C124.618 28.9653 124.75 29.5849 125.014 30.107C125.284 30.6292 125.665 31.0318 126.156 31.3148C126.646 31.5979 127.228 31.7395 127.901 31.7395C128.348 31.7395 128.757 31.6766 129.128 31.5507C129.499 31.4249 129.817 31.2362 130.081 30.9846C130.345 30.7329 130.547 30.4247 130.685 30.0598L134.403 30.3052C134.214 31.1985 133.827 31.9785 133.242 32.6453C132.663 33.3058 131.915 33.8217 130.996 34.1928C130.084 34.5577 129.031 34.7401 127.835 34.7401ZM143.659 34.7401C142.175 34.7401 140.898 34.4256 139.828 33.7965C138.765 33.1612 137.948 32.2805 137.375 31.1544C136.809 30.0284 136.526 28.7325 136.526 27.2668C136.526 25.7822 136.812 24.48 137.385 23.3603C137.963 22.2342 138.784 21.3567 139.847 20.7276C140.91 20.0923 142.175 19.7746 143.641 19.7746C144.905 19.7746 146.012 20.0042 146.962 20.4634C147.912 20.9226 148.664 21.5674 149.217 22.3978C149.771 23.2282 150.076 24.2032 150.133 25.323H146.339C146.232 24.5995 145.949 24.0177 145.49 23.5773C145.037 23.1307 144.443 22.9073 143.707 22.9073C143.084 22.9073 142.54 23.0772 142.074 23.4169C141.615 23.7503 141.256 24.2378 140.999 24.8795C140.741 25.5211 140.612 26.298 140.612 27.2102C140.612 28.1349 140.737 28.9212 140.989 29.5692C141.247 30.2171 141.609 30.7109 142.074 31.0506C142.54 31.3903 143.084 31.5602 143.707 31.5602C144.166 31.5602 144.578 31.4658 144.943 31.2771C145.314 31.0884 145.619 30.8147 145.858 30.4562C146.103 30.0913 146.264 29.6541 146.339 29.1446H150.133C150.07 30.2517 149.768 31.2268 149.227 32.0697C148.692 32.9064 147.953 33.5606 147.009 34.0324C146.066 34.5042 144.949 34.7401 143.659 34.7401ZM156.726 26.0778V34.457H152.706V15.1321H156.613V22.5205H156.783C157.11 21.6649 157.638 20.995 158.368 20.5106C159.098 20.0199 160.013 19.7746 161.114 19.7746C162.12 19.7746 162.998 19.9948 163.746 20.4351C164.501 20.8692 165.086 21.4951 165.502 22.3129C165.923 23.1244 166.131 24.0963 166.124 25.2286V34.457H162.105V25.9457C162.111 25.0525 161.884 24.3573 161.425 23.8604C160.972 23.3634 160.337 23.1149 159.519 23.1149C158.972 23.1149 158.487 23.2313 158.066 23.4641C157.651 23.6968 157.324 24.0365 157.085 24.4832C156.852 24.9235 156.732 25.4551 156.726 26.0778Z" fill="white"/>
<path d="M7.74989 9.48253C7.23134 10.8159 7.97212 12.1123 9.26849 12.1123C9.82408 12.1123 10.4537 12.5938 10.676 13.2235C10.9723 13.9643 10.6389 14.3347 9.63888 14.3347C8.86106 14.3347 8.19436 14.7791 8.19436 15.2977C8.19436 16.4088 12.1205 19.5201 13.528 19.5201C14.0465 19.5201 17.7875 23.8537 21.7877 29.1503C25.825 34.4469 29.4178 38.7804 29.7881 38.7804C30.603 38.7804 30.64 38.8175 21.8988 27.4465C18.2319 22.6684 14.7132 18.7793 14.0836 18.7793C12.565 18.7793 11.1575 17.2978 11.1575 15.7421C11.1575 12.8161 15.2318 16.6311 23.5285 27.2983C28.2695 33.4098 32.2698 38.5582 32.3809 38.7064C32.529 38.8916 32.7883 38.8545 33.0105 38.6693C33.1957 38.4471 29.4178 33.1505 24.5656 26.8909C17.4912 17.7422 15.6392 14.8532 15.2688 12.3716C14.7873 9.14918 13.4169 7.92689 11.9723 9.37142C11.3797 9.96404 10.9353 9.96404 10.2685 9.29734C9.0833 8.11209 8.2314 8.18616 7.74989 9.48253ZM14.8614 13.705C14.8614 14.9643 12.4909 14.0383 11.3427 12.2975L10.2685 10.6678L12.565 11.816C13.8243 12.4457 14.8614 13.2976 14.8614 13.705Z" fill="white"/>
<path d="M15.9352 10.6663C15.6759 11.0737 15.8241 11.8515 16.2685 12.4071C16.713 12.9257 16.8982 13.5183 16.676 13.7405C16.4537 13.9627 18.3057 16.7777 20.7873 19.9631C23.2689 23.1855 27.4914 28.7413 30.1952 32.2971C32.8991 35.8528 35.2326 38.6308 35.4178 38.4826C35.5659 38.2974 35.4548 31.8156 35.1585 24.0003L34.6399 9.81437L31.6398 10.0366L28.6766 10.2588L28.8618 19.3334C28.973 24.3337 28.8989 28.408 28.7137 28.408C28.1581 28.408 17.8242 14.4072 17.8242 13.6664C17.8242 13.296 18.2316 12.8516 18.7131 12.6664C19.8984 12.296 18.8983 9.88845 17.5279 9.88845C16.9353 9.88845 16.2315 10.2218 15.9352 10.6663Z" fill="white"/>
<path d="M8.93457 28.2992V38.7812H12.2681H15.6016L15.5646 30.8178C15.5646 22.8174 14.8238 20.2617 12.6014 20.2617C12.0829 20.2617 11.0458 19.7061 10.305 19.0394C8.97161 17.8542 8.93457 18.1875 8.93457 28.2992Z" fill="white"/>
</svg>
