<svg width="205" height="47" viewBox="0 0 205 47" fill="none" xmlns="http://www.w3.org/2000/svg">
<path d="M65.2887 32.4453V12.45H73.2946C74.7656 12.45 75.9925 12.6681 76.9754 13.1042C77.9582 13.5403 78.697 14.1456 79.1916 14.9201C79.6863 15.6882 79.9336 16.5734 79.9336 17.5758C79.9336 18.3568 79.7774 19.0435 79.465 19.6358C79.1526 20.2216 78.723 20.7033 78.1762 21.0808C77.636 21.4518 77.0177 21.7154 76.3212 21.8716V22.0669C77.0828 22.0994 77.7955 22.3142 78.4594 22.7113C79.1298 23.1083 79.6733 23.6648 80.0899 24.3808C80.5064 25.0903 80.7147 25.9364 80.7147 26.9193C80.7147 27.9802 80.4511 28.9273 79.9239 29.7604C79.4032 30.587 78.6319 31.2412 77.61 31.7228C76.5881 32.2045 75.3286 32.4453 73.8316 32.4453H65.2887ZM69.5162 28.9891H72.9626C74.1407 28.9891 74.9999 28.7645 75.5401 28.3154C76.0804 27.8598 76.3505 27.2545 76.3505 26.4994C76.3505 25.9462 76.2171 25.458 75.9502 25.0349C75.6833 24.6119 75.3026 24.2799 74.8079 24.0391C74.3197 23.7983 73.7372 23.6778 73.0603 23.6778H69.5162V28.9891ZM69.5162 20.8172H72.6502C73.2295 20.8172 73.7437 20.7163 74.1928 20.5145C74.6484 20.3062 75.0064 20.0133 75.2668 19.6358C75.5336 19.2583 75.6671 18.8059 75.6671 18.2787C75.6671 17.5562 75.41 16.9737 74.8958 16.5311C74.3881 16.0885 73.6656 15.8672 72.7283 15.8672H69.5162V20.8172ZM83.4655 32.4453V12.45H96.9389V15.9355H87.6931V20.7H96.2457V24.1855H87.6931V28.9598H96.978V32.4453H83.4655ZM100.3 32.4453V12.45H104.527V28.9598H113.1V32.4453H100.3ZM115.899 32.4453V12.45H120.127V28.9598H128.699V32.4453H115.899ZM131.499 32.4453V12.45H135.726V21.2663H135.99L143.185 12.45H148.253L140.832 21.403L148.34 32.4453H143.283L137.806 24.2246L135.726 26.7631V32.4453H131.499ZM153.901 32.4453H149.37L156.273 12.45H161.721L168.614 32.4453H164.084L159.075 17.0193H158.919L153.901 32.4453ZM153.617 24.5858H164.318V27.8858H153.617V24.5858ZM171.021 32.4453V12.45H178.909C180.419 12.45 181.708 12.7201 182.776 13.2604C183.85 13.7941 184.667 14.5524 185.226 15.5352C185.793 16.5116 186.076 17.6604 186.076 18.9817C186.076 20.3095 185.789 21.4518 185.217 22.4086C184.644 23.3589 183.814 24.0879 182.727 24.5956C181.646 25.1033 180.338 25.3571 178.802 25.3571H173.52V21.9595H178.119C178.926 21.9595 179.596 21.8488 180.13 21.6275C180.664 21.4062 181.061 21.0743 181.321 20.6317C181.588 20.1891 181.721 19.6391 181.721 18.9817C181.721 18.3178 181.588 17.758 181.321 17.3024C181.061 16.8468 180.66 16.5018 180.12 16.2675C179.586 16.0266 178.913 15.9062 178.099 15.9062H175.248V32.4453H171.021ZM181.819 23.3459L186.788 32.4453H182.122L177.259 23.3459H181.819ZM189.063 32.4453V12.45H202.537V15.9355H193.291V20.7H201.843V24.1855H193.291V28.9598H202.576V32.4453H189.063Z" fill="white"/>
<path d="M32.4626 6.80587C33.2789 8.43838 33.687 10.6831 33.755 13.676C33.755 17.5532 33.4829 18.4375 31.7824 20.6822C30.0138 22.9949 26.3407 25.8518 25.1163 25.8518C24.8442 25.8518 26.0006 24.4233 27.6331 22.7228C29.3336 21.0223 30.6941 19.3217 30.6941 18.9816C30.6941 18.6415 29.1976 18.3695 27.293 18.3695H23.892V21.7705V25.1716H20.4909H17.0898V29.5929V34.0143H20.4909H23.892V37.4154V40.8164H28.3133H32.7347V37.4154C32.7347 35.5108 33.0068 34.0143 33.3469 34.0143C33.687 34.0143 34.2312 33.4021 34.4352 32.5859C34.7073 31.8376 36.884 28.5046 39.3327 25.3076C44.3663 18.6415 46.679 14.0161 47.2912 9.52671L47.6993 6.46576L46.2709 9.52671C45.5227 11.2272 44.6384 13.1999 44.2983 13.9481C43.2099 16.6689 37.4281 23.8111 34.7073 25.7837C31.9184 27.8244 25.7965 30.1371 21.0351 31.0214C17.0898 31.7016 17.9741 30.8853 22.8036 29.2528C31.5783 26.3279 36.2718 21.7705 36.2718 16.0567C36.2718 12.8597 33.9591 6.73785 32.1905 5.30941C31.3743 4.62919 31.4423 4.9693 32.4626 6.80587Z" fill="white"/>
<path d="M38.1748 9.25576C37.4946 10.004 37.4266 10.8202 37.9027 12.1126C38.3788 13.5411 38.991 13.9492 40.5555 13.9492C42.256 13.9492 42.5962 13.6771 42.8002 12.0446C43.2083 8.7116 40.1474 6.80701 38.1748 9.25576Z" fill="white"/>
<path d="M47.1573 18.5064C45.1167 20.5471 47.0213 23.404 50.2183 22.9958C53.6193 22.5877 52.9391 17.6902 49.47 17.6902C48.6538 17.6902 47.6335 18.0303 47.1573 18.5064Z" fill="white"/>
<path d="M42.5975 26.2612C40.0807 27.6216 37.768 29.6623 35.9994 32.111L34.707 34.0156H37.0878C39.2644 34.0156 39.5365 33.8116 39.5365 32.3151C39.5365 31.0907 40.2848 30.1384 42.3934 28.778C44.7742 27.1455 45.9305 26.8734 49.6717 26.8734C52.1204 26.8734 55.1134 27.0775 56.2017 27.4176C58.1063 27.8937 58.1063 27.8257 55.8616 26.7374C52.4605 25.1049 45.1823 24.8328 42.5975 26.2612Z" fill="white"/>
</svg>
