<svg width="139" height="43" viewBox="0 0 139 43" fill="none" xmlns="http://www.w3.org/2000/svg">
<g clip-path="url(#clip0_1569_1329)">
<path d="M25.9443 21.4641C25.9664 21.8391 25.9774 22.1975 25.9774 22.5394C25.9774 24.4033 25.63 26.0852 24.9352 27.5851C24.097 29.3718 22.928 30.8442 21.428 32.0022C18.8804 33.9653 15.7757 34.969 12.1142 35.0131H10.7907C10.151 35.0131 9.54994 35.0076 8.98747 34.9965H7.0519C6.12548 34.9965 5.42515 34.98 4.9509 34.9469H4.57041C4.14028 34.9469 3.5723 34.98 2.86645 35.0462C2.34809 35.0462 2.08891 34.8146 2.08891 34.3513C2.08891 33.9322 2.36464 33.6234 2.91608 33.4249C3.46752 33.2264 3.74324 32.8404 3.74324 32.2669V13.6888C3.74324 13.1263 3.46752 12.7513 2.91608 12.5638C2.36464 12.3653 2.08891 12.051 2.08891 11.6209C2.08891 11.1687 2.34258 10.9426 2.84991 10.9426C3.31312 10.9536 3.78184 10.9591 4.25609 10.9591C4.7193 10.9591 5.18802 10.9536 5.66227 10.9426C6.61075 10.9095 7.54269 10.8819 8.45808 10.8599H9.43414C11.1326 10.8599 12.8421 10.904 14.5626 10.9922C16.636 11.1135 18.5109 11.5326 20.1873 12.2495C21.7754 12.9553 23.0879 14.0307 24.1246 15.4754C25.1723 16.9202 25.7789 18.9164 25.9443 21.4641ZM7.73018 13.1097V32.6474C8.85512 32.8569 10.0297 32.9617 11.2539 32.9617C11.7281 32.9617 12.1914 32.9452 12.6435 32.9121C14.2648 32.7908 15.6985 32.3992 16.9448 31.7375C18.4227 30.9655 19.5917 29.7689 20.452 28.1476C21.2461 26.6477 21.6431 24.7287 21.6431 22.3905V21.8446C21.599 20.1021 21.2902 18.6462 20.7167 17.4772C20.1542 16.3081 19.4097 15.3817 18.4833 14.6979C17.1268 13.6833 15.478 13.0877 13.5369 12.9112C12.8641 12.8561 12.1803 12.8285 11.4855 12.8285C10.151 12.8285 8.89924 12.9223 7.73018 13.1097ZM43.7085 12.4315C40.4881 12.4425 38.2327 13.4682 36.9423 15.5085C35.652 17.5489 35.0068 20.0304 35.0068 22.953C35.0068 25.8757 35.8174 28.3572 37.4386 30.3975C39.0709 32.4268 41.1609 33.4525 43.7085 33.4745H43.7913C46.2728 33.4745 48.3241 32.4047 49.9454 30.2651C51.5776 28.0925 52.3938 25.6882 52.3938 23.0523V22.953C52.3717 20.262 51.6824 17.8356 50.3259 15.674C48.9693 13.5123 46.7635 12.4315 43.7085 12.4315ZM43.7085 10.3139H43.874C47.5576 10.3139 50.6678 11.4444 53.2044 13.7053C55.5535 15.8118 56.7281 18.5746 56.7281 21.9935C56.7281 22.3023 56.7171 22.6111 56.695 22.9199C56.4634 26.7911 55.1069 29.8019 52.6254 31.9526C50.1549 34.1032 47.1771 35.2778 43.692 35.4763C43.4383 35.4873 43.1792 35.4928 42.9145 35.4928C39.7271 35.4928 36.9092 34.3955 34.4608 32.2007C31.9683 29.9729 30.7221 27.0723 30.7221 23.4989C30.7221 23.3004 30.7276 23.0964 30.7386 22.8868C30.8709 19.0598 32.1227 16.0214 34.4939 13.7715C36.8651 11.5106 39.9367 10.358 43.7085 10.3139ZM66.5515 13.573L73.2185 30.6456L76.7753 23.3666L74.2111 16.2861C74.0126 15.7346 73.8306 15.2604 73.6651 14.8633C73.5107 14.4663 73.3784 14.1299 73.2681 13.8542C73.1027 13.5013 72.8214 13.1814 72.4244 12.8947C72.1928 12.7513 71.9502 12.63 71.6965 12.5307C71.4428 12.4204 71.2278 12.2991 71.0513 12.1668C70.919 12.0896 70.8032 11.9572 70.7039 11.7697C70.6818 11.6705 70.6708 11.5988 70.6708 11.5547C70.6708 11.4885 70.6818 11.4168 70.7039 11.3396C70.8142 11.119 71.0127 11.0088 71.2995 11.0088H76.9076C77.1172 11.0088 77.3047 11.0694 77.4701 11.1907C77.6355 11.312 77.7458 11.4499 77.801 11.6043C77.823 11.6705 77.8341 11.7256 77.8341 11.7697C77.8341 11.9572 77.7403 12.1392 77.5528 12.3157C77.4315 12.4149 77.3102 12.5142 77.1889 12.6135C77.0786 12.7127 76.9959 12.8285 76.9407 12.9609C76.9187 13.027 76.9076 13.1042 76.9076 13.1925C76.9076 13.3138 76.9407 13.4406 77.0069 13.573L79.0252 18.7345L80.299 16.1372C80.4093 15.8945 80.4644 15.674 80.4644 15.4754C80.4644 15.321 80.4369 15.1942 80.3817 15.0949C80.1611 14.7751 79.8413 14.356 79.4222 13.8377L78.3965 12.6631L80.7126 10.926C80.878 10.7827 81.071 10.711 81.2916 10.711C81.5122 10.711 81.7383 10.8047 81.9699 10.9922L83.343 12.3984C83.6849 12.7513 83.8558 13.1814 83.8558 13.6888C83.8558 13.9535 83.8062 14.2402 83.7069 14.549C83.4422 15.3431 83.0452 16.275 82.5158 17.3448L80.2825 21.977L83.6738 30.6456L90.7544 16.1372C90.8647 15.8945 90.9198 15.674 90.9198 15.4754C90.9198 15.321 90.8922 15.1942 90.8371 15.0949C90.6275 14.7751 90.3022 14.356 89.861 13.8377L88.8519 12.6631L91.1514 10.926C91.3168 10.7827 91.5098 10.711 91.7304 10.711C91.962 10.711 92.1936 10.8047 92.4252 10.9922L93.7983 12.3984C94.1402 12.7513 94.3112 13.1814 94.3112 13.6888C94.3112 13.9535 94.2615 14.2402 94.1623 14.549C93.8976 15.3431 93.5006 16.275 92.9712 17.3448L84.8815 34.1363C84.7822 34.3679 84.6664 34.5554 84.5341 34.6988C84.4017 34.8311 84.2143 34.8973 83.9716 34.8973H81.4901C81.2034 34.8973 81.0049 34.809 80.8946 34.6326C80.8284 34.5885 80.7512 34.4396 80.663 34.1859C80.5747 33.9322 80.5141 33.7558 80.481 33.6565L77.9995 26.7414L74.4261 34.1363C74.3269 34.3679 74.2111 34.5554 74.0787 34.6988C73.9464 34.8311 73.7589 34.8973 73.5163 34.8973H71.0348C70.748 34.8973 70.5495 34.809 70.4392 34.6326C70.373 34.5885 70.2958 34.4396 70.2076 34.1859C70.1194 33.9322 70.0587 33.7558 70.0256 33.6565L62.8127 13.8542C62.6804 13.5233 62.3992 13.2035 61.969 12.8947C61.7374 12.7513 61.4948 12.63 61.2411 12.5307C60.9875 12.4204 60.7724 12.2991 60.5959 12.1668C60.4636 12.0896 60.3478 11.9572 60.2485 11.7697C60.2265 11.6705 60.2154 11.5988 60.2154 11.5547C60.2154 11.4885 60.2265 11.4168 60.2485 11.3396C60.3588 11.119 60.5573 11.0088 60.8441 11.0088H66.4523C66.6508 11.0088 66.8438 11.0749 67.0313 11.2073C67.1857 11.3396 67.2905 11.4664 67.3456 11.5878C67.3677 11.665 67.3787 11.7256 67.3787 11.7697C67.3787 11.9572 67.2849 12.1392 67.0975 12.3157C66.9761 12.4149 66.8548 12.5142 66.7335 12.6135C66.6232 12.7127 66.5405 12.8285 66.4854 12.9609C66.4633 13.027 66.4523 13.1042 66.4523 13.1925C66.4523 13.3138 66.4854 13.4406 66.5515 13.573ZM105.26 32.6805H111.91C112.792 32.6805 113.564 32.311 114.226 31.5721C114.899 30.8331 115.417 30.2431 115.781 29.8019C116.068 29.46 116.338 29.2891 116.592 29.2891C117.099 29.2891 117.353 29.5152 117.353 29.9674C117.353 30.1328 117.336 30.2707 117.303 30.381L116.029 34.8973H100.545C100.037 34.8973 99.7837 34.6712 99.7837 34.219C99.7837 33.7999 100.059 33.4966 100.611 33.3091C101.162 33.1106 101.438 32.7246 101.438 32.1511V13.7715C101.438 13.209 101.162 12.8285 100.611 12.63C100.059 12.4315 99.7837 12.1172 99.7837 11.687C99.7837 11.2348 100.037 11.0088 100.545 11.0088H106.153C106.649 11.0088 106.897 11.2348 106.897 11.687C106.897 12.1172 106.622 12.4315 106.07 12.63C105.519 12.8285 105.243 13.209 105.243 13.7715L105.26 32.6805Z" fill="white"/>
</g>
<defs>
<clipPath id="clip0_1569_1329">
<rect width="138.162" height="42.3399" fill="white" transform="translate(0.71582 0.566406)"/>
</clipPath>
</defs>
</svg>
