<svg width="161" height="47" viewBox="0 0 161 47" fill="none" xmlns="http://www.w3.org/2000/svg">
<path d="M70.6428 19.0391H67.783L72.1404 6.4169H75.5795L79.9306 19.0391H77.0709L73.9092 9.30126H73.8106L70.6428 19.0391ZM70.464 14.0777H77.2189V16.1609H70.464V14.0777ZM84.1 19.2178C83.496 19.2178 82.9578 19.113 82.4853 18.9035C82.0128 18.6898 81.6389 18.3755 81.3636 17.9605C81.0924 17.5414 80.9568 17.0196 80.9568 16.3951C80.9568 15.8691 81.0534 15.4274 81.2465 15.07C81.4396 14.7125 81.7026 14.4249 82.0354 14.2071C82.3682 13.9894 82.7462 13.825 83.1694 13.7141C83.5967 13.6032 84.0446 13.5251 84.513 13.4799C85.0635 13.4224 85.5073 13.369 85.8442 13.3196C86.1811 13.2662 86.4256 13.1882 86.5776 13.0854C86.7296 12.9827 86.8057 12.8307 86.8057 12.6294V12.5924C86.8057 12.2021 86.6824 11.9001 86.4359 11.6864C86.1934 11.4728 85.8483 11.3659 85.4005 11.3659C84.9279 11.3659 84.552 11.4707 84.2726 11.6802C83.9932 11.8857 83.8083 12.1445 83.7179 12.4568L81.2896 12.2596C81.4129 11.6844 81.6553 11.1872 82.0169 10.7681C82.3784 10.3449 82.8448 10.0203 83.4159 9.79432C83.9911 9.56422 84.6568 9.44918 85.4128 9.44918C85.9387 9.44918 86.442 9.51081 86.9228 9.63407C87.4076 9.75734 87.837 9.94839 88.2109 10.2072C88.5889 10.4661 88.8868 10.7989 89.1045 11.2057C89.3223 11.6083 89.4312 12.0911 89.4312 12.654V19.0391H86.9412V17.7263H86.8673C86.7153 18.0221 86.5119 18.283 86.2571 18.509C86.0024 18.7309 85.6963 18.9055 85.3388 19.0329C84.9814 19.1562 84.5684 19.2178 84.1 19.2178ZM84.8519 17.4058C85.2382 17.4058 85.5792 17.3298 85.875 17.1778C86.1708 17.0217 86.403 16.8121 86.5715 16.5491C86.7399 16.2862 86.8241 15.9883 86.8241 15.6555V14.6509C86.742 14.7043 86.629 14.7536 86.4852 14.7988C86.3455 14.8399 86.1873 14.8789 86.0106 14.9159C85.8339 14.9488 85.6573 14.9796 85.4806 15.0084C85.3039 15.033 85.1437 15.0556 84.9998 15.0761C84.6917 15.1213 84.4226 15.1932 84.1925 15.2919C83.9624 15.3905 83.7837 15.524 83.6563 15.6925C83.5289 15.8568 83.4652 16.0623 83.4652 16.3088C83.4652 16.6662 83.5946 16.9395 83.8535 17.1285C84.1165 17.3134 84.4493 17.4058 84.8519 17.4058ZM94.9564 19.1931C94.2374 19.1931 93.5862 19.0082 93.0027 18.6385C92.4234 18.2646 91.9632 17.716 91.6222 16.9929C91.2852 16.2656 91.1168 15.374 91.1168 14.3181C91.1168 13.2334 91.2914 12.3315 91.6407 11.6124C91.9899 10.8893 92.4542 10.349 93.0335 9.99154C93.617 9.62997 94.2559 9.44918 94.9503 9.44918C95.4803 9.44918 95.922 9.53957 96.2754 9.72036C96.6328 9.89704 96.9204 10.1189 97.1382 10.386C97.3601 10.6489 97.5285 10.9078 97.6436 11.1625H97.7237V6.4169H100.343V19.0391H97.7545V17.5229H97.6436C97.5203 17.7859 97.3457 18.0468 97.1197 18.3056C96.8978 18.5604 96.6082 18.772 96.2507 18.9405C95.8973 19.1089 95.4659 19.1931 94.9564 19.1931ZM95.7885 17.1038C96.2117 17.1038 96.5691 16.9888 96.8609 16.7587C97.1567 16.5245 97.3827 16.1978 97.5388 15.7787C97.699 15.3597 97.7792 14.8687 97.7792 14.3058C97.7792 13.7428 97.7011 13.2539 97.545 12.8389C97.3888 12.4239 97.1629 12.1034 96.867 11.8775C96.5712 11.6515 96.2117 11.5385 95.7885 11.5385C95.357 11.5385 94.9934 11.6556 94.6976 11.8898C94.4018 12.124 94.1778 12.4486 94.0258 12.8636C93.8738 13.2786 93.7978 13.7593 93.7978 14.3058C93.7978 14.8563 93.8738 15.3432 94.0258 15.7664C94.1819 16.1855 94.4059 16.5142 94.6976 16.7525C94.9934 16.9867 95.357 17.1038 95.7885 17.1038ZM102.502 19.0391V9.57244H105.127V19.0391H102.502ZM103.821 8.35214C103.43 8.35214 103.095 8.22271 102.816 7.96386C102.541 7.70089 102.403 7.38657 102.403 7.02089C102.403 6.65932 102.541 6.34911 102.816 6.09025C103.095 5.82729 103.43 5.69581 103.821 5.69581C104.211 5.69581 104.544 5.82729 104.819 6.09025C105.098 6.34911 105.238 6.65932 105.238 7.02089C105.238 7.38657 105.098 7.70089 104.819 7.96386C104.544 8.22271 104.211 8.35214 103.821 8.35214ZM116.056 9.57244L112.746 19.0391H109.788L106.478 9.57244H109.252L111.218 16.3458H111.317L113.276 9.57244H116.056ZM121.409 19.224C120.435 19.224 119.597 19.0267 118.894 18.6323C118.196 18.2337 117.657 17.6708 117.279 16.9436C116.901 16.2122 116.712 15.3473 116.712 14.3489C116.712 13.3751 116.901 12.5205 117.279 11.785C117.657 11.0495 118.19 10.4764 118.876 10.0655C119.566 9.65462 120.375 9.44918 121.304 9.44918C121.929 9.44918 122.51 9.54984 123.048 9.75117C123.591 9.94839 124.063 10.2463 124.466 10.6448C124.872 11.0434 125.189 11.5447 125.415 12.1486C125.641 12.7485 125.754 13.4511 125.754 14.2564V14.9775H117.76V13.3505H123.282C123.282 12.9725 123.2 12.6376 123.036 12.3459C122.871 12.0541 122.643 11.8261 122.352 11.6618C122.064 11.4933 121.729 11.4091 121.347 11.4091C120.949 11.4091 120.595 11.5015 120.287 11.6864C119.983 11.8672 119.745 12.1117 119.572 12.4198C119.4 12.7239 119.311 13.0628 119.307 13.4367V14.9837C119.307 15.4521 119.393 15.8568 119.566 16.1978C119.743 16.5389 119.991 16.8018 120.312 16.9867C120.632 17.1716 121.012 17.2641 121.452 17.2641C121.744 17.2641 122.011 17.223 122.253 17.1408C122.496 17.0586 122.703 16.9354 122.876 16.771C123.048 16.6067 123.18 16.4053 123.27 16.167L125.698 16.3273C125.575 16.9107 125.322 17.4202 124.94 17.8557C124.562 18.2872 124.073 18.6241 123.473 18.8665C122.878 19.1048 122.189 19.224 121.409 19.224ZM130.955 19.1931C130.236 19.1931 129.585 19.0082 129.002 18.6385C128.422 18.2646 127.962 17.716 127.621 16.9929C127.284 16.2656 127.116 15.374 127.116 14.3181C127.116 13.2334 127.29 12.3315 127.64 11.6124C127.989 10.8893 128.453 10.349 129.033 9.99154C129.616 9.62997 130.255 9.44918 130.949 9.44918C131.479 9.44918 131.921 9.53957 132.274 9.72036C132.632 9.89704 132.919 10.1189 133.137 10.386C133.359 10.6489 133.528 10.9078 133.643 11.1625H133.723V6.4169H136.342V19.0391H133.754V17.5229H133.643C133.519 17.7859 133.345 18.0468 133.119 18.3056C132.897 18.5604 132.607 18.772 132.25 18.9405C131.896 19.1089 131.465 19.1931 130.955 19.1931ZM131.788 17.1038C132.211 17.1038 132.568 16.9888 132.86 16.7587C133.156 16.5245 133.382 16.1978 133.538 15.7787C133.698 15.3597 133.778 14.8687 133.778 14.3058C133.778 13.7428 133.7 13.2539 133.544 12.8389C133.388 12.4239 133.162 12.1034 132.866 11.8775C132.57 11.6515 132.211 11.5385 131.788 11.5385C131.356 11.5385 130.992 11.6556 130.697 11.8898C130.401 12.124 130.177 12.4486 130.025 12.8636C129.873 13.2786 129.797 13.7593 129.797 14.3058C129.797 14.8563 129.873 15.3432 130.025 15.7664C130.181 16.1855 130.405 16.5142 130.697 16.7525C130.992 16.9867 131.356 17.1038 131.788 17.1038ZM141.2 19.2178C140.596 19.2178 140.058 19.113 139.585 18.9035C139.113 18.6898 138.739 18.3755 138.464 17.9605C138.193 17.5414 138.057 17.0196 138.057 16.3951C138.057 15.8691 138.154 15.4274 138.347 15.07C138.54 14.7125 138.803 14.4249 139.136 14.2071C139.468 13.9894 139.846 13.825 140.27 13.7141C140.697 13.6032 141.145 13.5251 141.613 13.4799C142.164 13.4224 142.607 13.369 142.944 13.3196C143.281 13.2662 143.526 13.1882 143.678 13.0854C143.83 12.9827 143.906 12.8307 143.906 12.6294V12.5924C143.906 12.2021 143.783 11.9001 143.536 11.6864C143.294 11.4728 142.948 11.3659 142.501 11.3659C142.028 11.3659 141.652 11.4707 141.373 11.6802C141.093 11.8857 140.908 12.1445 140.818 12.4568L138.39 12.2596C138.513 11.6844 138.755 11.1872 139.117 10.7681C139.479 10.3449 139.945 10.0203 140.516 9.79432C141.091 9.56422 141.757 9.44918 142.513 9.44918C143.039 9.44918 143.542 9.51081 144.023 9.63407C144.508 9.75734 144.937 9.94839 145.311 10.2072C145.689 10.4661 145.987 10.7989 146.205 11.2057C146.422 11.6083 146.531 12.0911 146.531 12.654V19.0391H144.041V17.7263H143.967C143.815 18.0221 143.612 18.283 143.357 18.509C143.103 18.7309 142.796 18.9055 142.439 19.0329C142.082 19.1562 141.669 19.2178 141.2 19.2178ZM141.952 17.4058C142.338 17.4058 142.679 17.3298 142.975 17.1778C143.271 17.0217 143.503 16.8121 143.672 16.5491C143.84 16.2862 143.924 15.9883 143.924 15.6555V14.6509C143.842 14.7043 143.729 14.7536 143.585 14.7988C143.446 14.8399 143.287 14.8789 143.111 14.9159C142.934 14.9488 142.757 14.9796 142.581 15.0084C142.404 15.033 142.244 15.0556 142.1 15.0761C141.792 15.1213 141.523 15.1932 141.293 15.2919C141.063 15.3905 140.884 15.524 140.756 15.6925C140.629 15.8568 140.565 16.0623 140.565 16.3088C140.565 16.6662 140.695 16.9395 140.954 17.1285C141.217 17.3134 141.549 17.4058 141.952 17.4058Z" fill="white"/>
<path d="M69.1955 40.7344H66.3358L70.6931 28.1122H74.1322L78.4834 40.7344H75.6237L72.462 30.9966H72.3634L69.1955 40.7344ZM69.0168 35.773H75.7716V37.8562H69.0168V35.773ZM80.3878 44.2844C80.055 44.2844 79.7427 44.2577 79.451 44.2042C79.1634 44.1549 78.9251 44.0912 78.7361 44.0132L79.3277 42.0533C79.6359 42.1478 79.9132 42.1992 80.1598 42.2074C80.4104 42.2156 80.6261 42.1581 80.8069 42.0348C80.9918 41.9115 81.1418 41.702 81.2568 41.4062L81.4109 41.0056L78.015 31.2678H80.7761L82.736 38.2198H82.8346L84.813 31.2678H87.5925L83.9131 41.7575C83.7365 42.2669 83.4961 42.7107 83.192 43.0887C82.8921 43.4708 82.512 43.7646 82.0519 43.97C81.5917 44.1796 81.037 44.2844 80.3878 44.2844ZM95.0068 36.7037V31.2678H97.6323V40.7344H95.1116V39.0149H95.013C94.7993 39.5695 94.4439 40.0153 93.9468 40.3523C93.4537 40.6892 92.8518 40.8576 92.141 40.8576C91.5082 40.8576 90.9515 40.7138 90.4707 40.4262C89.99 40.1386 89.6141 39.7298 89.3429 39.1997C89.0758 38.6697 88.9402 38.0349 88.9361 37.2953V31.2678H91.5616V36.8269C91.5657 37.3857 91.7157 37.8274 92.0115 38.152C92.3074 38.4766 92.7039 38.6389 93.201 38.6389C93.5174 38.6389 93.8132 38.567 94.0885 38.4232C94.3638 38.2753 94.5857 38.0575 94.7541 37.7699C94.9267 37.4823 95.0109 37.1269 95.0068 36.7037ZM99.7324 40.7344V31.2678H102.278V32.9195H102.376C102.549 32.3319 102.839 31.8882 103.245 31.5882C103.652 31.2842 104.121 31.1322 104.651 31.1322C104.782 31.1322 104.924 31.1404 105.076 31.1568C105.228 31.1733 105.361 31.1959 105.476 31.2246V33.5543C105.353 33.5173 105.183 33.4844 104.965 33.4557C104.747 33.4269 104.548 33.4125 104.367 33.4125C103.981 33.4125 103.636 33.4968 103.332 33.6652C103.032 33.8296 102.793 34.0597 102.617 34.3555C102.444 34.6513 102.358 34.9924 102.358 35.3786V40.7344H99.7324ZM115.948 31.2678L112.638 40.7344H109.68L106.37 31.2678H109.144L111.11 38.0411H111.208L113.168 31.2678H115.948ZM121.3 40.9193C120.327 40.9193 119.488 40.722 118.786 40.3276C118.087 39.9291 117.549 39.3662 117.171 38.6389C116.793 37.9075 116.604 37.0426 116.604 36.0442C116.604 35.0704 116.793 34.2158 117.171 33.4803C117.549 32.7449 118.081 32.1717 118.767 31.7608C119.458 31.3499 120.267 31.1445 121.196 31.1445C121.82 31.1445 122.402 31.2452 122.94 31.4465C123.482 31.6437 123.955 31.9416 124.357 32.3401C124.764 32.7387 125.08 33.24 125.306 33.844C125.532 34.4438 125.645 35.1464 125.645 35.9518V36.6728H117.652V35.0458H123.174C123.174 34.6678 123.092 34.3329 122.927 34.0412C122.763 33.7495 122.535 33.5214 122.243 33.3571C121.956 33.1886 121.621 33.1044 121.239 33.1044C120.84 33.1044 120.487 33.1968 120.179 33.3817C119.875 33.5625 119.636 33.807 119.464 34.1151C119.291 34.4192 119.203 34.7582 119.199 35.1321V36.679C119.199 37.1474 119.285 37.5521 119.458 37.8932C119.634 38.2342 119.883 38.4971 120.203 38.682C120.524 38.8669 120.904 38.9594 121.344 38.9594C121.635 38.9594 121.902 38.9183 122.145 38.8361C122.387 38.7539 122.595 38.6307 122.767 38.4663C122.94 38.302 123.071 38.1006 123.162 37.8623L125.59 38.0226C125.467 38.606 125.214 39.1155 124.832 39.551C124.454 39.9825 123.965 40.3194 123.365 40.5618C122.769 40.8001 122.081 40.9193 121.3 40.9193ZM130.847 40.8885C130.128 40.8885 129.477 40.7036 128.893 40.3338C128.314 39.9599 127.854 39.4113 127.513 38.6882C127.176 37.961 127.008 37.0693 127.008 36.0134C127.008 34.9287 127.182 34.0268 127.531 33.3078C127.881 32.5846 128.345 32.0443 128.924 31.6868C129.508 31.3253 130.147 31.1445 130.841 31.1445C131.371 31.1445 131.813 31.2349 132.166 31.4157C132.524 31.5923 132.811 31.8142 133.029 32.0813C133.251 32.3443 133.419 32.6031 133.534 32.8579H133.614V28.1122H136.234V40.7344H133.645V39.2182H133.534C133.411 39.4812 133.236 39.7421 133.01 40.001C132.789 40.2557 132.499 40.4673 132.141 40.6358C131.788 40.8042 131.357 40.8885 130.847 40.8885ZM131.679 38.7991C132.102 38.7991 132.46 38.6841 132.752 38.454C133.047 38.2198 133.273 37.8932 133.43 37.4741C133.59 37.055 133.67 36.564 133.67 36.0011C133.67 35.4382 133.592 34.9492 133.436 34.5342C133.28 34.1192 133.054 33.7988 132.758 33.5728C132.462 33.3468 132.102 33.2338 131.679 33.2338C131.248 33.2338 130.884 33.3509 130.588 33.5851C130.292 33.8193 130.069 34.1439 129.917 34.5589C129.764 34.9739 129.688 35.4546 129.688 36.0011C129.688 36.5516 129.764 37.0385 129.917 37.4617C130.073 37.8808 130.297 38.2095 130.588 38.4478C130.884 38.682 131.248 38.7991 131.679 38.7991ZM141.092 40.9131C140.488 40.9131 139.95 40.8083 139.477 40.5988C139.005 40.3851 138.631 40.0708 138.355 39.6558C138.084 39.2367 137.949 38.7149 137.949 38.0904C137.949 37.5645 138.045 37.1228 138.238 36.7653C138.431 36.4078 138.694 36.1202 139.027 35.9025C139.36 35.6847 139.738 35.5203 140.161 35.4094C140.589 35.2985 141.036 35.2204 141.505 35.1752C142.055 35.1177 142.499 35.0643 142.836 35.015C143.173 34.9615 143.417 34.8835 143.569 34.7808C143.722 34.678 143.798 34.526 143.798 34.3247V34.2877C143.798 33.8974 143.674 33.5954 143.428 33.3817C143.185 33.1681 142.84 33.0612 142.392 33.0612C141.92 33.0612 141.544 33.166 141.264 33.3756C140.985 33.581 140.8 33.8398 140.71 34.1521L138.281 33.9549C138.405 33.3797 138.647 32.8825 139.009 32.4634C139.37 32.0402 139.837 31.7156 140.408 31.4896C140.983 31.2595 141.649 31.1445 142.405 31.1445C142.931 31.1445 143.434 31.2061 143.915 31.3294C144.399 31.4526 144.829 31.6437 145.203 31.9026C145.581 32.1614 145.879 32.4942 146.096 32.901C146.314 33.3037 146.423 33.7864 146.423 34.3493V40.7344H143.933V39.4216H143.859C143.707 39.7175 143.504 39.9784 143.249 40.2043C142.994 40.4262 142.688 40.6008 142.331 40.7282C141.973 40.8515 141.56 40.9131 141.092 40.9131ZM141.844 39.1011C142.23 39.1011 142.571 39.0251 142.867 38.8731C143.163 38.717 143.395 38.5074 143.563 38.2445C143.732 37.9815 143.816 37.6836 143.816 37.3508V36.3462C143.734 36.3996 143.621 36.4489 143.477 36.4941C143.337 36.5352 143.179 36.5742 143.002 36.6112C142.826 36.6441 142.649 36.6749 142.472 36.7037C142.296 36.7283 142.136 36.7509 141.992 36.7715C141.684 36.8167 141.414 36.8886 141.184 36.9872C140.954 37.0858 140.776 37.2193 140.648 37.3878C140.521 37.5521 140.457 37.7576 140.457 38.0041C140.457 38.3616 140.587 38.6348 140.845 38.8238C141.108 39.0087 141.441 39.1011 141.844 39.1011Z" fill="white"/>
<path d="M31.6692 2.76082C31.0165 3.41346 30.8691 3.72926 30.8691 4.40296C30.8691 5.64509 31.606 6.33984 32.9323 6.33984C34.3218 6.33984 34.8692 5.77141 34.8692 4.36085C34.8692 3.49767 34.764 3.24504 34.1534 2.6345C33.206 1.68711 32.6376 1.72921 31.6692 2.76082ZM33.9008 3.64505C34.0903 3.89768 34.2376 4.27664 34.2376 4.46612C34.2376 4.97139 33.4166 5.91878 32.9745 5.91878C32.5323 5.91878 31.7113 4.97139 31.7113 4.46612C31.7113 3.81347 32.3429 3.18188 32.9745 3.18188C33.3534 3.18188 33.6903 3.3503 33.9008 3.64505Z" fill="white"/>
<path d="M36.7447 3.35157C36.1131 4.02527 36.0079 4.27791 36.0921 4.82529C36.1552 5.24635 36.05 5.70952 35.8394 6.02532C35.3973 6.69902 35.5236 6.90955 36.45 7.01481C37.3763 7.12008 37.8605 6.69902 37.2079 6.34112C36.7026 6.08848 36.6184 5.33057 37.0816 5.18319C38.1132 4.8674 38.1132 4.8674 37.8605 4.61476C37.4395 4.1937 37.5658 3.81474 38.1132 3.81474C38.7658 3.81474 38.8711 3.64632 38.6395 3.01472C38.3658 2.29892 37.6079 2.42524 36.7447 3.35157Z" fill="white"/>
<path d="M24.1309 5.05414C24.1309 5.39099 24.2782 5.76994 24.4467 5.91731C24.6151 6.06469 24.7625 6.29627 24.7625 6.42259C24.7625 6.80154 25.6677 7.60156 26.0677 7.60156C26.6993 7.60156 27.0783 7.34893 27.0783 6.94892C27.0783 6.61207 27.0151 6.59101 26.6783 6.80154C26.3204 7.01208 26.1941 6.99102 25.8362 6.67523C25.2467 6.12785 25.2888 5.81205 26.0256 5.26467C26.3625 5.01203 26.5941 4.71729 26.5309 4.61202C26.4678 4.52781 25.8993 4.4436 25.2677 4.4436C24.1519 4.4436 24.1309 4.46465 24.1309 5.05414Z" fill="white"/>
<path d="M43.7119 5.79376C43.7119 6.17271 43.375 6.57272 42.4487 7.30958C41.1013 8.36224 40.9118 8.76225 41.6487 8.99383C41.9855 9.0991 42.1961 9.01488 42.4066 8.67803C42.8066 8.1096 43.4382 8.1096 43.6277 8.69909C43.7119 9.01488 43.6487 9.24647 43.375 9.43595C42.975 9.73069 42.975 9.75174 43.375 10.0465C44.0277 10.5097 44.3435 10.4044 44.3435 9.70964C44.3435 9.35173 44.4698 8.80435 44.6382 8.48856C44.8066 8.17276 44.9961 7.47801 45.0803 6.95168C45.2067 6.0885 45.1645 5.94113 44.7435 5.62533C44.0487 5.14111 43.7119 5.20427 43.7119 5.79376ZM44.2382 7.45695C44.2382 8.00433 43.8171 7.98328 43.754 7.41485C43.6908 7.078 43.775 6.95168 43.9645 7.01484C44.1119 7.078 44.2382 7.26748 44.2382 7.45695Z" fill="white"/>
<path d="M21.3316 6.61272C20.6579 7.18115 20.6369 7.39169 21.1843 7.87591C21.4158 8.06538 21.6053 8.40223 21.6053 8.63382C21.6053 9.13909 22.1316 9.58121 22.5527 9.41278C22.9738 9.26541 22.9527 8.8654 22.5317 8.8654C22.3211 8.8654 22.2369 8.71803 22.279 8.38118C22.3632 7.79169 22.9106 7.77064 23.079 8.36013C23.1632 8.73908 23.2685 8.78119 23.6685 8.63382C24.3422 8.38118 24.258 8.00223 23.2896 7.01273C22.3422 6.00218 22.0895 5.93902 21.3316 6.61272ZM22.3632 7.20221C22.5738 7.56011 22.0895 7.96012 21.7948 7.66538C21.5422 7.41274 21.7106 6.97062 22.0264 6.97062C22.1316 6.97062 22.279 7.07589 22.3632 7.20221Z" fill="white"/>
<path d="M29.9208 7.62464C28.2155 7.75096 27.4996 7.98254 24.8259 9.22467C22.5101 10.2984 19.6047 12.8879 18.0889 15.2459C14.6994 20.4881 14.3415 27.0777 17.1836 32.6568C18.6573 35.5832 20.51 37.6043 20.9942 36.8463C21.2469 36.4253 21.2469 36.4042 20.5942 35.7095C19.5416 34.5726 18.1731 32.0041 17.4784 29.9199C17.1836 29.0146 17.0994 28.0461 17.0994 25.604C17.0784 21.9197 17.3099 20.8249 18.8468 17.7091C19.6889 15.9617 20.089 15.4353 21.9416 13.6037C23.9838 11.5826 25.0575 10.8458 27.6049 9.81416C29.8997 8.86677 34.6998 8.63519 37.0788 9.35099C38.9104 9.91943 40.6157 10.6563 41.0579 11.0773C41.1842 11.2037 41.6263 11.5195 42.0684 11.7721C43.6263 12.7405 46.8685 16.7617 46.8685 17.7512C46.8685 17.9196 46.9527 18.1301 47.0369 18.2354C47.1422 18.3617 47.4369 19.0986 47.7106 19.9197C48.1738 21.246 48.2159 21.7513 48.2159 24.8671C48.2159 27.7093 48.1317 28.4672 47.858 29.0146C47.6685 29.3935 47.5001 29.8357 47.5001 30.0041C47.5001 30.5515 46.2159 33.0989 45.2474 34.5095C42.8895 37.8779 39.8578 39.8569 35.8156 40.6359C33.3945 41.1201 32.9945 41.1412 31.9419 40.7833C31.3734 40.5938 30.7418 40.4464 30.5734 40.4464C29.7523 40.4464 27.2891 38.6569 27.2891 38.0464C27.2891 37.9411 27.1207 37.6674 26.9312 37.4569C26.2365 36.6779 26.5523 33.2252 27.5628 30.762C27.6681 30.4673 27.8365 29.8988 27.9418 29.4988C28.2365 28.1093 28.9734 25.8356 29.5207 24.4882C29.6892 24.1092 29.8155 23.625 29.8155 23.3934C29.8155 23.1618 29.9418 22.6776 30.1102 22.2987C30.2576 21.9197 30.5523 21.0355 30.7629 20.3407C30.9524 19.646 31.226 18.8459 31.3524 18.5512C31.4576 18.2565 31.6261 17.6459 31.7313 17.1827C31.8787 16.3827 32.2577 14.8037 32.4682 14.1511C32.6577 13.5827 33.3524 14.5301 33.4998 15.5617C33.5629 16.109 33.7524 16.9301 33.9208 17.3933C34.0682 17.8564 34.363 18.8038 34.5524 19.4986C34.763 20.1933 34.9946 20.9091 35.0788 21.0776C35.163 21.267 35.3104 21.7302 35.3735 22.1302C35.4577 22.5302 35.6472 23.2039 35.7946 23.6039C35.963 24.004 36.2577 24.9092 36.4472 25.604C36.6578 26.2987 36.9525 27.183 37.0999 27.5619C37.2683 27.9409 37.3946 28.383 37.3946 28.5304C37.3946 28.6988 37.542 29.0988 37.7104 29.4146C37.8788 29.7515 38.0262 30.1725 38.0262 30.3409C38.0262 30.5094 38.1736 30.8462 38.342 31.0567C38.6999 31.5199 38.7631 32.0252 38.4683 32.0252C38.342 32.0252 37.4788 31.2462 36.5104 30.2778C35.4998 29.2672 34.3209 28.3409 33.7103 28.0461C33.1419 27.7725 32.4261 27.4146 32.1313 27.2882C31.8366 27.1409 31.2471 26.9724 30.805 26.8882C30.1734 26.7619 29.9839 26.804 29.8787 27.0988C29.7102 27.583 30.4471 28.1725 31.5629 28.4462C32.0471 28.5725 32.7419 28.8251 33.1208 28.9935C33.4787 29.162 33.8787 29.2883 34.0051 29.2883C34.1314 29.2883 34.2366 29.3514 34.2366 29.4567C34.2366 29.5409 34.5945 29.7936 35.0367 30.0251C36.6578 30.8673 38.4894 33.2042 39.6052 35.8147C40.1105 37.0358 40.6368 37.6043 41.0789 37.4148C41.5 37.2674 41.3947 36.2569 40.8684 35.2463C40.6999 34.9305 40.5526 34.4673 40.5526 34.2358C40.5315 34.0042 40.4052 33.5831 40.2368 33.2884C40.0684 32.9936 39.942 32.5094 39.921 32.1936C39.921 31.8778 39.8368 31.5831 39.7315 31.5199C39.6262 31.4568 39.4789 31.0357 39.3947 30.6146C39.2052 29.583 38.6999 27.8988 38.3209 27.0145C38.1525 26.6356 38.0262 26.1303 38.0262 25.9198C38.0262 25.6882 37.942 25.3303 37.8367 25.1198C37.7315 24.9303 37.4578 24.1513 37.2262 23.3934C36.5525 21.1197 35.4577 17.6459 35.184 16.867C35.0367 16.4669 34.8051 15.7932 34.6788 15.3932C34.5314 14.9932 34.3419 14.3616 34.2577 14.0248C34.1735 13.6669 33.984 13.1827 33.8577 12.93C33.7103 12.6774 33.6051 12.2984 33.6051 12.0668C33.6051 11.5405 32.6366 10.5089 32.2155 10.5931C31.9208 10.6563 31.0997 12.5721 31.0787 13.2458C31.0787 13.4142 30.9524 13.8353 30.805 14.1932C30.6366 14.5722 30.3418 15.4353 30.1313 16.1301C29.9418 16.8248 29.6681 17.6249 29.5629 17.9196C29.4365 18.2143 29.2681 18.7828 29.1839 19.1828C28.9944 19.9828 28.6576 20.9934 28.2155 22.0881C28.047 22.4671 27.9207 22.9934 27.9207 23.246C27.8997 23.4987 27.7733 23.9408 27.6049 24.2355C27.4365 24.5303 27.3102 24.9724 27.2891 25.225C27.2891 25.4777 27.1628 26.004 26.9944 26.383C26.847 26.7619 26.5523 27.6461 26.3417 28.3409C26.1523 29.0356 25.8575 29.9409 25.6891 30.3409C25.5417 30.7409 25.3101 31.7725 25.1628 32.6147C24.6575 35.6463 25.5838 37.9622 28.0049 39.8359C28.5944 40.2991 29.1839 40.7622 29.3313 40.8675C29.4786 40.9938 29.7102 41.078 29.8576 41.078C30.026 41.078 30.3208 41.2043 30.5523 41.3517C30.7839 41.5201 31.8155 41.7728 32.8471 41.9201C35.7104 42.3623 38.5104 41.9201 41.0789 40.5938C42.4895 39.878 44.7211 38.1516 45.5632 37.12C45.9843 36.5937 46.5317 35.9411 46.7632 35.6884C47.2264 35.2042 48.4685 32.762 49.037 31.2883C49.6265 29.7304 50.0265 27.3093 50.0265 25.3935C50.0265 23.6671 49.6054 20.9723 49.1633 19.9197C49.0791 19.6881 48.7843 18.9723 48.5317 18.3407C47.9633 16.9512 46.7632 15.0774 45.3737 13.4563C44.8053 12.8037 44.3421 12.2142 44.3421 12.1511C44.3421 12.0879 44.5737 12.0247 44.8685 12.0247C45.6895 12.0247 48.1317 10.7405 48.1317 10.2984C48.1317 9.77205 47.1633 9.79311 46.8685 10.3405C46.6159 10.8247 45.9843 10.6773 46.1738 10.1721C46.258 9.98259 46.4264 9.72995 46.5948 9.64574C47.0369 9.37205 46.9106 8.7194 46.4053 8.59308C45.8369 8.42466 45.6053 8.74045 45.6053 9.7089C45.6053 10.5089 45.1422 11.2037 44.4053 11.5826C43.8158 11.8774 43.9 11.8984 42.9526 11.1826C42.4895 10.8247 41.9421 10.4036 41.7105 10.2352C41.3315 9.94048 39.2473 8.90888 38.1315 8.44571C36.342 7.7299 32.8892 7.372 29.9208 7.62464Z" fill="white"/>
<path d="M18.3869 8.82448C17.7132 9.51923 17.6711 10.0456 18.2396 10.7193C18.8501 11.4561 19.7133 11.5193 20.4501 10.8877C20.9554 10.4666 21.0186 10.2982 20.808 10.0877C20.5975 9.87713 20.5133 9.91924 20.4291 10.2771C20.2396 10.9929 19.0817 11.1403 19.0817 10.4456C19.0817 10.2982 18.9343 10.1298 18.7659 10.0456C18.5975 9.9824 18.4501 9.83503 18.4501 9.70871C18.4501 9.60344 18.5975 9.49818 18.7659 9.49818C18.9343 9.49818 19.0817 9.35081 19.0817 9.16133C19.0817 8.80343 19.5448 8.86658 19.6712 9.24554C19.7133 9.39291 19.608 9.49818 19.4185 9.49818C19.229 9.49818 19.0817 9.64555 19.0817 9.81397C19.0817 10.235 19.1869 10.214 19.9238 9.68766C20.4501 9.28765 20.4922 9.16133 20.3028 8.74027C19.9659 8.02446 19.1027 8.06657 18.3869 8.82448Z" fill="white"/>
<path d="M14.8481 10.6994C13.9008 11.5625 13.7534 12.2362 14.5323 12.2362C14.785 12.2362 15.2692 12.4678 15.585 12.7626C15.9008 13.0573 16.2376 13.2889 16.3429 13.2889C16.4482 13.2889 16.5956 13.4784 16.6587 13.71C16.9956 14.7837 18.4482 13.4573 18.4482 12.0468C18.4482 11.5415 18.364 11.3941 18.0272 11.3941C17.7956 11.3941 17.6061 11.2889 17.6061 11.1836C17.6061 11.0573 17.3745 10.8678 17.0798 10.7625C16.785 10.6573 16.5534 10.4678 16.5534 10.3625C16.5534 10.2573 16.364 10.1309 16.1113 10.0678C15.8166 9.98357 15.4376 10.173 14.8481 10.6994ZM16.2376 11.4994C16.2376 12.131 15.4166 12.0678 15.3324 11.4362C15.2692 11.0152 15.3324 10.952 15.7534 11.0152C16.0692 11.0573 16.2376 11.2257 16.2376 11.4994ZM17.7745 12.6152C17.8587 13.3731 17.5429 13.4994 16.9324 12.931C16.4482 12.5099 16.4482 12.0889 16.9324 11.9626C17.5429 11.7941 17.7114 11.9205 17.7745 12.6152Z" fill="white"/>
<path d="M47.6487 12.2367L46.8486 13.2894L47.6276 14.2999C48.4276 15.3315 48.6592 15.4157 49.1434 14.742C49.2908 14.5315 49.6908 14.1947 50.0487 14.0262C50.8277 13.6052 50.954 12.5946 50.1961 12.6999C49.9224 12.742 49.5855 13.0157 49.4382 13.3525C49.2066 13.8157 49.0382 13.921 48.596 13.8789C47.796 13.7736 47.796 13.3736 48.6381 12.5736C49.5224 11.7525 49.6276 11.1841 48.9118 11.1841C48.575 11.1841 48.196 11.4999 47.6487 12.2367Z" fill="white"/>
<path d="M50.6606 15.3928C50.5133 15.6876 50.2185 15.8139 49.7343 15.8139C48.7869 15.8139 48.7237 15.9613 49.208 16.8876C49.6922 17.856 49.9659 17.9403 50.0711 17.1192C50.1554 16.3823 51.1448 16.1929 51.5027 16.8455C51.6291 17.0981 51.9238 17.2876 52.1554 17.2876C52.7028 17.2876 52.9344 16.6771 52.4922 16.3402C52.3028 16.2139 52.0501 15.8349 51.9449 15.5402C51.6712 14.8665 50.9975 14.7823 50.6606 15.3928Z" fill="white"/>
<path d="M10.6172 18.3629C10.4067 18.7208 10.2383 19.1419 10.2383 19.3103C10.2383 19.7103 11.1646 19.6893 11.5225 19.2682C12.0699 18.5945 14.0278 19.3735 14.0278 20.2788C14.0278 21.2893 14.8279 20.0261 15.2279 18.4261C15.3752 17.7524 14.9121 17.584 14.6594 18.2156C14.4278 18.8472 14.2805 18.8682 13.4805 18.4471C13.1436 18.2787 12.7015 18.1313 12.512 18.1313C12.3015 18.1313 12.1331 18.0261 12.1331 17.9208C12.1331 17.7945 11.8804 17.7103 11.5646 17.7103C11.1225 17.7103 10.8699 17.8787 10.6172 18.3629Z" fill="white"/>
<path d="M52.1097 18.4877C51.7097 18.8246 51.2465 19.2457 51.036 19.4351C50.2781 20.193 50.7202 20.8667 51.9834 20.8667C52.4255 20.8667 52.9729 20.972 53.1834 21.0773C53.4992 21.2457 53.6255 21.2036 53.794 20.9088C54.1098 20.3194 53.7097 20.0457 52.7413 20.172C52.0676 20.2773 51.9202 20.2351 51.9202 19.9404C51.9202 19.7509 51.9834 19.6036 52.0887 19.6036C52.1729 19.6036 52.5097 19.393 52.8255 19.1193C53.2466 18.8035 53.3729 18.5509 53.2887 18.2772C53.0782 17.793 52.9097 17.814 52.1097 18.4877Z" fill="white"/>
<path d="M12.7017 21.4564C11.5017 21.5406 10.8701 22.0459 10.8701 22.9722C10.8701 23.6459 11.4386 24.1091 11.9859 23.8986C12.1754 23.8354 12.5123 23.8775 12.7438 24.0249C13.5228 24.4249 13.986 23.9828 14.0702 22.7407C14.0912 22.1512 14.0491 21.6038 13.9228 21.5406C13.8176 21.4564 13.2491 21.4143 12.7017 21.4564ZM12.1333 22.7407C12.1333 22.9722 12.0491 23.2249 11.9228 23.288C11.7965 23.3723 11.7122 23.1828 11.7122 22.888C11.7122 22.5933 11.8175 22.3406 11.9228 22.3406C12.0491 22.3406 12.1333 22.5301 12.1333 22.7407ZM13.3965 22.8459C13.3965 23.267 12.9965 23.4986 12.7228 23.2249C12.5965 23.0986 12.5754 22.9091 12.6386 22.7828C12.8491 22.4459 13.3965 22.5091 13.3965 22.8459Z" fill="white"/>
<path d="M51.99 22.1303C51.7373 22.2356 51.4636 22.5514 51.4005 22.8251C51.211 23.5409 51.3584 24.783 51.611 24.6567C51.8005 24.5514 51.8426 24.3619 51.9058 23.3303C51.9268 23.1198 52.0952 22.9724 52.3479 22.9724C52.7268 22.9724 52.7689 23.0566 52.6426 23.8146C52.5163 24.5725 52.5373 24.6356 53.0847 24.783C53.5479 24.8883 53.7374 24.8251 54.0532 24.4251C54.2637 24.1514 54.4532 23.7303 54.4321 23.4988C54.4321 22.4882 53.0216 21.7092 51.99 22.1303Z" fill="white"/>
<path d="M11.1829 25.2861C10.4671 26.0651 10.825 27.4336 11.8145 27.8125C12.404 28.0441 13.3935 27.8336 13.3935 27.4967C13.3935 27.3493 13.5408 27.1599 13.7303 27.0967C14.1935 26.9072 14.0461 25.4125 13.5408 25.3282C13.225 25.2651 13.1829 25.3704 13.3092 26.1072L13.4356 26.9493L12.5934 26.9283C11.7092 26.9283 11.2671 26.4862 11.7092 26.0441C11.8566 25.8967 12.004 25.9598 12.1934 26.2335C12.4671 26.5914 12.4882 26.5914 12.6145 26.1493C12.7408 25.6651 12.2355 24.8651 11.7934 24.8651C11.6671 24.8651 11.3934 25.0546 11.1829 25.2861Z" fill="white"/>
<path d="M51.9671 25.7499C51.4197 26.0236 51.2302 26.5709 51.3355 27.7289C51.3986 28.4868 51.4407 28.5499 51.9881 28.4868C52.3039 28.4447 53.1039 28.5289 53.7776 28.6552C54.8303 28.8447 54.9987 28.8236 55.3566 28.4657C55.8619 27.9815 55.6724 27.6025 54.9145 27.6025C54.4092 27.6025 54.325 27.5183 54.3461 27.0341C54.3461 26.613 54.1566 26.3394 53.6303 25.9815C52.8302 25.4551 52.6618 25.413 51.9671 25.7499ZM53.2092 26.5499C53.7987 26.8657 53.7145 27.5604 53.0829 27.7289C52.7881 27.792 52.4092 27.8131 52.2407 27.7289C51.7986 27.5604 51.8407 26.613 52.3039 26.4867C52.4934 26.4236 52.6829 26.3815 52.725 26.3604C52.7671 26.3604 52.9776 26.4446 53.2092 26.5499Z" fill="white"/>
<path d="M13.0807 28.5501C12.6597 29.0554 11.6491 29.2659 11.3965 28.8659C11.2491 28.6343 10.3017 29.0132 10.1543 29.3922C10.1122 29.5396 10.1122 30.2343 10.1754 30.9501C10.2807 32.0028 10.3649 32.2344 10.6807 32.2344C10.8912 32.2344 11.1017 32.1502 11.1859 32.0449C11.3544 31.7502 13.5439 31.1396 14.0913 31.2238C14.4702 31.287 14.5544 31.1817 14.5544 30.6554C14.5544 30.1501 14.4702 30.0449 14.1334 30.087C12.6597 30.3396 12.3228 30.0449 13.3544 29.3922C13.7544 29.1396 14.0071 28.8027 14.0281 28.4869C14.0281 27.8764 13.6071 27.8974 13.0807 28.5501ZM12.0281 29.9185C12.2597 30.2975 11.9018 30.9712 11.4807 30.9712C11.0175 30.9712 10.7649 30.508 10.9544 30.0238C11.0807 29.6659 11.8386 29.6027 12.0281 29.9185Z" fill="white"/>
<path d="M51.1011 29.5838C50.8275 29.8785 50.6801 30.1943 50.7432 30.3206C50.8275 30.4259 50.7432 30.868 50.5748 31.2891C50.4064 31.6891 50.2801 32.0259 50.3011 32.047C50.3222 32.068 50.9538 32.1101 51.6906 32.1522C52.8696 32.2154 53.0591 32.1733 53.417 31.7522C53.6486 31.4785 53.7959 31.0364 53.7538 30.6785C53.7117 30.1522 53.5854 30.0259 52.9749 29.8574C52.5749 29.7522 52.0906 29.5417 51.9012 29.3732C51.6064 29.1206 51.5222 29.1416 51.1011 29.5838ZM52.0275 30.5311C52.0906 30.6364 52.0485 30.8048 51.9222 30.868C51.6064 31.0575 51.0169 30.8048 51.1854 30.5522C51.3538 30.2785 51.8591 30.2785 52.0275 30.5311ZM53.1433 30.6996C53.0591 31.1627 52.6801 31.1206 52.5959 30.6785C52.5538 30.468 52.6591 30.3417 52.8696 30.3417C53.0801 30.3417 53.1854 30.489 53.1433 30.6996Z" fill="white"/>
<path d="M35.1207 31.4359C34.9734 31.5832 34.8681 31.9201 34.8681 32.1938C34.8681 32.4675 34.6365 33.0991 34.3418 33.6254C34.047 34.1517 33.8154 34.7412 33.8154 34.9728C33.8154 35.4991 34.1944 35.7307 34.3628 35.3096C34.426 35.1202 34.5944 34.9728 34.7418 34.9728C34.8681 34.9728 35.3734 34.5096 35.8786 33.9412C36.9523 32.678 37.0576 31.8569 36.1944 31.4359C35.4997 31.1201 35.4365 31.1201 35.1207 31.4359Z" fill="white"/>
<path d="M36.4263 35.3918C35.8579 35.7497 35.0368 36.0234 34.6368 36.0445C33.7526 36.0655 28.2788 35.3076 27.984 35.1181C27.8577 35.0339 27.6472 35.1181 27.4998 35.2866C26.805 36.1287 28.4893 38.6551 30.3209 39.4972C31.563 40.0656 34.2999 39.834 35.5421 39.0551C36.6368 38.3814 37.1632 37.834 37.6684 36.9076C38.0685 36.1708 38.0895 34.9497 37.7105 34.8444C37.6053 34.8023 37.0158 35.055 36.4263 35.3918Z" fill="white"/>
</svg>
