<svg width="206" height="49" viewBox="0 0 206 49" fill="none" xmlns="http://www.w3.org/2000/svg">
<path d="M66.2568 16.8322V32.8125H62.8782V16.8322H66.2568ZM82.4029 16.8322V32.8125H79.4846L72.5323 22.7546H72.4152V32.8125H69.0366V16.8322H72.0017L78.8994 26.8823H79.0398V16.8322H82.4029ZM98.5606 16.8322V32.8125H95.6424L88.69 22.7546H88.573V32.8125H85.1943V16.8322H88.1594L95.0572 26.8823H95.1976V16.8322H98.5606ZM116.037 24.8224C116.037 26.565 115.707 28.0476 115.046 29.27C114.391 30.4924 113.496 31.4262 112.362 32.0712C111.233 32.7111 109.964 33.031 108.554 33.031C107.134 33.031 105.86 32.7085 104.731 32.0634C103.602 31.4184 102.71 30.4846 102.054 29.2622C101.399 28.0398 101.071 26.5598 101.071 24.8224C101.071 23.0797 101.399 21.5972 102.054 20.3747C102.71 19.1523 103.602 18.2212 104.731 17.5813C105.86 16.9363 107.134 16.6138 108.554 16.6138C109.964 16.6138 111.233 16.9363 112.362 17.5813C113.496 18.2212 114.391 19.1523 115.046 20.3747C115.707 21.5972 116.037 23.0797 116.037 24.8224ZM112.612 24.8224C112.612 23.6936 112.443 22.7416 112.104 21.9665C111.772 21.1914 111.301 20.6036 110.692 20.2031C110.084 19.8025 109.371 19.6023 108.554 19.6023C107.737 19.6023 107.025 19.8025 106.416 20.2031C105.808 20.6036 105.334 21.1914 104.996 21.9665C104.663 22.7416 104.497 23.6936 104.497 24.8224C104.497 25.9512 104.663 26.9031 104.996 27.6782C105.334 28.4533 105.808 29.0411 106.416 29.4417C107.025 29.8422 107.737 30.0425 108.554 30.0425C109.371 30.0425 110.084 29.8422 110.692 29.4417C111.301 29.0411 111.772 28.4533 112.104 27.6782C112.443 26.9031 112.612 25.9512 112.612 24.8224ZM120.526 16.8322L124.388 28.9735H124.536L128.407 16.8322H132.152L126.643 32.8125H122.289L116.773 16.8322H120.526ZM143.77 21.9977C143.661 21.618 143.508 21.2825 143.31 20.9912C143.112 20.6947 142.87 20.445 142.584 20.2421C142.303 20.034 141.981 19.8754 141.617 19.7661C141.258 19.6569 140.86 19.6023 140.423 19.6023C139.606 19.6023 138.888 19.8051 138.269 20.2109C137.656 20.6166 137.177 21.207 136.834 21.9821C136.49 22.752 136.319 23.6936 136.319 24.8068C136.319 25.92 136.488 26.8667 136.826 27.647C137.164 28.4273 137.643 29.0229 138.262 29.4339C138.881 29.8396 139.611 30.0425 140.454 30.0425C141.219 30.0425 141.872 29.9072 142.413 29.6367C142.959 29.361 143.375 28.9735 143.661 28.4741C143.952 27.9747 144.098 27.3843 144.098 26.7029L144.785 26.8043H140.665V24.2606H147.352V26.2737C147.352 27.6782 147.055 28.8851 146.462 29.8942C145.869 30.8982 145.053 31.6733 144.012 32.2195C142.972 32.7605 141.781 33.031 140.439 33.031C138.94 33.031 137.624 32.7007 136.49 32.04C135.356 31.3742 134.472 30.43 133.837 29.2076C133.208 27.9799 132.893 26.5234 132.893 24.838C132.893 23.5427 133.08 22.3879 133.455 21.3735C133.835 20.3539 134.365 19.4904 135.047 18.783C135.728 18.0755 136.522 17.5371 137.427 17.1678C138.332 16.7984 139.312 16.6138 140.368 16.6138C141.274 16.6138 142.116 16.7464 142.896 17.0117C143.677 17.2718 144.369 17.6411 144.972 18.1197C145.581 18.5983 146.077 19.1679 146.462 19.8285C146.847 20.484 147.094 21.207 147.204 21.9977H143.77ZM149.89 32.8125V16.8322H156.195C157.401 16.8322 158.431 17.0481 159.284 17.4799C160.143 17.9064 160.796 18.5125 161.243 19.2979C161.696 20.0782 161.922 20.9964 161.922 22.0524C161.922 23.1135 161.693 24.0265 161.235 24.7912C160.777 25.5506 160.114 26.1333 159.245 26.539C158.382 26.9447 157.336 27.1476 156.109 27.1476H151.887V24.4322H155.562C156.208 24.4322 156.743 24.3438 157.17 24.1669C157.596 23.9901 157.914 23.7248 158.122 23.371C158.335 23.0173 158.442 22.5777 158.442 22.0524C158.442 21.5218 158.335 21.0744 158.122 20.7103C157.914 20.3461 157.594 20.0704 157.162 19.8832C156.736 19.6907 156.197 19.5945 155.547 19.5945H153.268V32.8125H149.89ZM158.52 25.5402L162.491 32.8125H158.762L154.876 25.5402H158.52ZM167.064 32.8125H163.443L168.96 16.8322H173.314L178.823 32.8125H175.202L171.199 20.484H171.075L167.064 32.8125ZM166.838 26.5312H175.39V29.1686H166.838V26.5312ZM180.746 32.8125V16.8322H187.145C188.32 16.8322 189.301 17.0065 190.086 17.355C190.872 17.7036 191.462 18.1873 191.857 18.8064C192.253 19.4202 192.451 20.1277 192.451 20.9287C192.451 21.553 192.326 22.1018 192.076 22.5751C191.826 23.0433 191.483 23.4283 191.046 23.73C190.614 24.0265 190.12 24.2372 189.563 24.362V24.5181C190.172 24.5441 190.742 24.7157 191.272 25.033C191.808 25.3504 192.242 25.7951 192.575 26.3673C192.908 26.9343 193.075 27.6106 193.075 28.3961C193.075 29.244 192.864 30.0009 192.443 30.6667C192.027 31.3274 191.41 31.8501 190.593 32.2351C189.777 32.62 188.77 32.8125 187.574 32.8125H180.746ZM184.125 30.0503H186.879C187.821 30.0503 188.507 29.8708 188.939 29.5119C189.371 29.1478 189.587 28.664 189.587 28.0606C189.587 27.6184 189.48 27.2283 189.267 26.8901C189.054 26.552 188.749 26.2867 188.354 26.0942C187.964 25.9018 187.498 25.8055 186.957 25.8055H184.125V30.0503ZM184.125 23.5193H186.63C187.093 23.5193 187.504 23.4387 187.862 23.2774C188.227 23.1109 188.513 22.8769 188.721 22.5751C188.934 22.2734 189.041 21.9119 189.041 21.4905C189.041 20.9131 188.835 20.4476 188.424 20.0938C188.018 19.7401 187.441 19.5632 186.692 19.5632H184.125V23.5193Z" fill="white"/>
<path d="M34.3129 10.5253C38.4612 12.8437 42.4403 14.8626 46.1499 17.2926C47.8453 18.4032 50.1745 20.3692 50.1164 21.8659C50.0461 23.6804 47.7558 25.4088 46.6755 26.8433C39.8755 22.9617 34.0407 19.1399 27.7884 16.2085C22.1959 13.5865 20.7502 9.68082 22.0666 3.64844C26.1365 5.94245 30.085 8.16806 34.3129 10.5253Z" fill="white"/>
<path d="M37.9121 35.4847C32.9337 32.6476 28.3699 29.6457 23.4615 27.3955C17.9589 24.8729 15.4375 21.2207 17.1196 14.5742C18.6139 15.4076 20.0885 16.2255 21.559 17.0508C27.7409 20.5201 33.915 24.0033 40.1045 27.459C46.743 31.1654 46.8852 32.2987 41.0697 37.6276C40.1437 36.9956 39.1592 36.3236 37.9121 35.4847Z" fill="white"/>
<path d="M35.2109 40.84C28.9231 44.2522 27.0684 44.5878 23.8665 40.6946C22.0105 38.438 21.8036 34.8252 20.8545 31.8227C21.2778 31.5367 21.7011 31.2508 22.1244 30.9648C26.8579 33.6424 31.5938 36.3158 36.2851 39.0653C36.3254 39.0889 35.7653 40.1368 35.2109 40.84Z" fill="white"/>
</svg>
